<?xml version="1.0" encoding="UTF-8" standalone="no"?>
<svg
   height="100mm"
   viewBox="0 0 100 100"
   width="100mm"
   version="1.1"
   id="svg1"
   sodipodi:docname="item.man.svg"
   xml:space="preserve"
   inkscape:version="1.4 (e7c3feb1, 2024-10-09)"
   xmlns:inkscape="http://www.inkscape.org/namespaces/inkscape"
   xmlns:sodipodi="http://sodipodi.sourceforge.net/DTD/sodipodi-0.dtd"
   xmlns:xlink="http://www.w3.org/1999/xlink"
   xmlns="http://www.w3.org/2000/svg"
   xmlns:svg="http://www.w3.org/2000/svg"><defs
     id="defs1"><linearGradient
       id="linearGradient23"
       inkscape:collect="always"><stop
         style="stop-color:#f2e5d9;stop-opacity:1;"
         offset="0"
         id="stop23" /><stop
         style="stop-color:#fbf7f4;stop-opacity:1;"
         offset="1"
         id="stop24" /></linearGradient><linearGradient
       id="linearGradient21"
       inkscape:collect="always"><stop
         style="stop-color:#9d5a16;stop-opacity:1;"
         offset="0"
         id="stop21" /><stop
         style="stop-color:#9c5916;stop-opacity:1;"
         offset="1"
         id="stop22" /></linearGradient><linearGradient
       inkscape:collect="always"
       xlink:href="#linearGradient21"
       id="linearGradient22"
       x1="48.820274"
       y1="18.437962"
       x2="48.820274"
       y2="83.000427"
       gradientUnits="userSpaceOnUse"
       gradientTransform="matrix(1.3132938,0,0,1.3132938,-14.098783,-16.20784)" /><linearGradient
       inkscape:collect="always"
       xlink:href="#linearGradient23"
       id="linearGradient24"
       x1="48.895866"
       y1="20.942305"
       x2="48.895866"
       y2="79.799011"
       gradientUnits="userSpaceOnUse"
       gradientTransform="matrix(1.3132938,0,0,1.3132938,-14.098783,-16.20784)" /></defs><sodipodi:namedview
     id="namedview1"
     pagecolor="#ffffff"
     bordercolor="#666666"
     borderopacity="1.0"
     inkscape:showpageshadow="2"
     inkscape:pageopacity="0.0"
     inkscape:pagecheckerboard="0"
     inkscape:deskcolor="#d1d1d1"
     inkscape:document-units="mm"
     showgrid="false"
     inkscape:zoom="1.4578542"
     inkscape:cx="188.63341"
     inkscape:cy="188.97638"
     inkscape:window-width="1424"
     inkscape:window-height="770"
     inkscape:window-x="7"
     inkscape:window-y="25"
     inkscape:window-maximized="0"
     inkscape:current-layer="g54" /><g
     id="g54"><path
       id="path12"
       style="fill:url(#linearGradient22);stroke-width:1.88571;stroke-linecap:round;stroke-linejoin:round;stroke-miterlimit:3.8637"
       d="M 50.016583,-5.486692e-7 C 38.300961,-3.8634189e-5 28.803564,9.497358 28.803601,21.21298 c 0.05271,3.919891 1.039631,7.521998 3.136443,10.834352 L 19.44144,32.273836 c -6.527775,2.4e-5 -10.847235,4.579151 -10.8472587,11.106926 2.37e-5,6.527777 4.2439807,11.928245 10.7717577,11.928268 0,0 8.810249,-0.141808 9.295918,1.095641 1.325895,3.378269 -11.546874,25.048507 -11.546874,25.048507 -3.431754,6.388979 -0.959637,13.293235 5.428796,16.726001 5.859756,2.903671 12.310764,1.716357 17.707516,-4.293567 0,0 9.132086,-14.614304 10.210517,-14.521691 1.078431,0.09261 9.320058,14.521691 9.320058,14.521691 4.792744,6.311928 12.149765,7.725738 18.538026,4.293567 6.388435,-3.432766 7.879038,-11.545038 4.447284,-17.934017 0,0 -13.029383,-19.77717 -10.922874,-23.47653 0.987947,-1.734992 8.671918,-1.459602 8.671918,-1.459602 6.75428,-0.679532 10.889571,-4.520231 10.889594,-11.048008 -2.3e-5,-6.527775 -4.135315,-11.760659 -10.66309,-11.760682 L 68.034203,31.771081 C 70.131014,28.458727 71.176849,25.132869 71.229564,21.21298 71.2296,9.4973594 61.732204,-3.7320896e-5 50.016583,-5.486692e-7 Z"
       sodipodi:nodetypes="ccccccsccczcccscccccc" /><path
       id="path8-1"
       style="fill:#f3e7db;stroke-width:1.35461;stroke-linecap:round;stroke-linejoin:round;stroke-miterlimit:3.8637"
       d="m 45.755841,17.762896 a 2.6265876,2.6265876 0 0 1 -2.626588,2.626587 2.6265876,2.6265876 0 0 1 -2.626587,-2.626587 2.6265876,2.6265876 0 0 1 2.626587,-2.626588 2.6265876,2.6265876 0 0 1 2.626588,2.626588 z" /><path
       id="circle48"
       style="fill:#f3e7db;stroke-width:1.35461;stroke-linecap:round;stroke-linejoin:round;stroke-miterlimit:3.8637"
       d="m 59.475144,17.762896 a 2.6265876,2.6265876 0 0 1 -2.626587,2.626587 2.6265876,2.6265876 0 0 1 -2.626588,-2.626587 2.6265876,2.6265876 0 0 1 2.626588,-2.626588 2.6265876,2.6265876 0 0 1 2.626587,2.626588 z" /><path
       id="circle49"
       style="baseline-shift:baseline;display:inline;overflow:visible;vector-effect:none;fill:#f6ede5;stroke-linecap:round;stroke-linejoin:round;stroke-miterlimit:3.8637;enable-background:accumulate;stop-color:#000000;stop-opacity:1"
       d="m 52.742436,46.727921 a 2.6265876,2.6265876 0 0 1 -2.626587,2.626587 2.6265876,2.6265876 0 0 1 -2.626588,-2.626587 2.6265876,2.6265876 0 0 1 2.626588,-2.626588 2.6265876,2.6265876 0 0 1 2.626587,2.626588 z" /><path
       id="circle50"
       style="baseline-shift:baseline;display:inline;overflow:visible;vector-effect:none;fill:#f8f0ea;stroke-linecap:round;stroke-linejoin:round;stroke-miterlimit:3.8637;enable-background:accumulate;stop-color:#000000;stop-opacity:1"
       d="m 52.742436,59.391914 a 2.6265876,2.6265876 0 0 1 -2.626587,2.626588 2.6265876,2.6265876 0 0 1 -2.626588,-2.626588 2.6265876,2.6265876 0 0 1 2.626588,-2.626587 2.6265876,2.6265876 0 0 1 2.626587,2.626587 z" /><path
       style="fill:#f4e8de;stroke-linecap:round"
       d="m 57.005859,23.865234 a 1.3229166,1.3229166 0 0 0 -0.816406,0.59961 c -2.788133,4.608012 -9.700464,4.81388 -12.257812,0.24414 a 1.3229166,1.3229166 0 0 0 -1.800782,-0.507812 1.3229166,1.3229166 0 0 0 -0.507812,1.800781 c 3.558253,6.358262 13.049892,6.081586 16.830078,-0.166016 a 1.3229166,1.3229166 0 0 0 -0.447266,-1.816406 1.3229166,1.3229166 0 0 0 -1,-0.154297 z"
       id="path50" /><path
       style="fill:#f6ede4;stroke-linejoin:round"
       d="m 23.867187,35.171875 -2.103515,1.603516 0.652344,0.857421 -2.103516,2.34961 a 1.3230489,1.3230489 0 0 0 -0.146484,1.570312 l 1.746093,2.873047 -1.59375,1.990235 a 1.3230489,1.3230489 0 0 0 0,1.654296 l 1.742188,2.175782 -0.621094,0.783203 2.072266,1.644531 1.277343,-1.609375 a 1.3230489,1.3230489 0 0 0 -0.0039,-1.648437 l -1.738281,-2.173829 1.509766,-1.884765 a 1.3230489,1.3230489 0 0 0 0.09766,-1.515625 L 22.9375,41.017578 25.117187,38.582031 a 1.3230489,1.3230489 0 0 0 0.06641,-1.685547 z"
       id="path51" /><path
       style="fill:#f6ede4;stroke-linejoin:round"
       d="m 76.1875,35.375 -1.318359,1.726562 a 1.3230489,1.3230489 0 0 0 0.06641,1.683594 l 2.18164,2.435547 -1.71875,2.826172 a 1.3230489,1.3230489 0 0 0 0.09766,1.513672 l 1.511718,1.886719 -1.740234,2.171875 a 1.3230489,1.3230489 0 0 0 -0.002,1.65039 l 1.277344,1.609375 2.072265,-1.646484 -0.623047,-0.783203 1.742188,-2.175782 a 1.3230489,1.3230489 0 0 0 0,-1.654296 l -1.59375,-1.990235 1.746094,-2.873047 A 1.3230489,1.3230489 0 0 0 79.742187,40.1875 l -2.105468,-2.351563 0.654297,-0.855468 z"
       id="path52" /><path
       style="fill:#faf6f2;stroke-linejoin:round"
       d="m 75.791016,77.810547 -0.07031,0.613281 -3.074219,-0.15625 a 1.3230489,1.3230489 0 0 0 -1.310547,0.869141 l -1.28125,3.537109 -4.08789,0.05469 a 1.3230489,1.3230489 0 0 0 -1.226563,0.876953 l -1.158203,3.234375 -3.037109,0.25 0.216797,2.636718 3.886718,-0.320312 a 1.3230489,1.3230489 0 0 0 1.136719,-0.873047 l 1.136719,-3.171875 4.082031,-0.05469 a 1.3230489,1.3230489 0 0 0 1.226563,-0.873047 l 1.259765,-3.47461 3.335938,0.169922 a 1.3230489,1.3230489 0 0 0 1.382812,-1.169922 l 0.210938,-1.847656 z"
       id="path53" /><path
       style="fill:#faf6f2;stroke-linejoin:round"
       d="m 24.216797,78.107422 -2.615235,0.40039 0.28125,1.835938 a 1.3230489,1.3230489 0 0 0 1.423829,1.117187 l 3.330078,-0.296875 1.388672,3.425782 a 1.3230489,1.3230489 0 0 0 1.259765,0.826172 l 4.082031,-0.101563 1.25586,3.126953 a 1.3230489,1.3230489 0 0 0 1.167969,0.830078 l 3.896484,0.171875 0.117187,-2.642578 -3.044921,-0.134765 -1.28125,-3.189454 A 1.3230489,1.3230489 0 0 0 34.21875,82.646484 l -4.083984,0.101563 -1.416016,-3.484375 a 1.3230489,1.3230489 0 0 0 -1.341797,-0.820313 l -3.068359,0.271485 z"
       id="path54" /><path
       style="fill:url(#linearGradient24);stroke-linecap:round;stroke-linejoin:round;stroke-miterlimit:3.8637"
       d="M 49.630859,2.5117188 C 38.151022,2.5116808 30.221087,12.720478 31.679687,22.958984 c 0.225209,2.987638 1.63063,5.483558 2.710938,7.351563 0.542727,0.938451 1.006457,1.737759 1.208984,2.242187 0.07982,0.198808 0.08887,0.286161 0.09961,0.34961 -0.548185,0.556946 -0.638053,0.848194 -1.794922,1.158203 -1.364239,0.365578 -4.366992,0.618382 -10.664063,0.330078 a 1.3230489,1.3230489 0 0 0 -0.06055,-0.002 c -3.129161,1.1e-5 -5.974987,0.47969 -8.169921,1.9375 -2.194935,1.45781 -3.550769,3.981949 -3.550782,7.294922 1.2e-5,3.282337 1.204374,5.820992 3.298829,7.335937 2.073961,1.500122 4.820347,2.015252 7.921874,2.025391 1.770565,0.197619 3.727063,-0.05306 5.304688,0.07227 0.799266,0.06349 1.468497,0.220699 1.923828,0.464844 0.455331,0.244146 0.733428,0.518187 0.945313,1.115235 0.683428,1.925757 -0.279225,6.023019 -2.310547,10.529296 -2.0274,4.497577 -4.923648,9.436465 -7.371094,13.601563 -2.280275,3.687401 -3.369574,6.969792 -2.955078,9.941406 0.414495,2.971614 2.425823,5.386976 5.583984,7.083985 3.292105,1.768724 6.82601,1.566734 9.802735,0.115234 2.976724,-1.4515 5.467748,-4.075292 7.152343,-7.208984 l -0.06445,0.107421 c 0,0 2.269231,-3.394921 4.728516,-6.767578 1.229642,-1.686328 2.509191,-3.368678 3.548828,-4.58789 0.516444,-0.605649 0.976948,-1.094873 1.304687,-1.392578 0.302765,0.300712 0.718444,0.784928 1.183594,1.378906 0.93952,1.199728 2.084012,2.839911 3.177735,4.480469 2.187444,3.281115 4.183593,6.564453 4.183593,6.564453 l -0.03516,-0.06055 c 1.693458,3.150181 4.348336,5.919174 7.470703,7.539062 3.122367,1.619889 6.828851,2.044275 10.175781,0.246094 3.236617,-1.739165 5.194159,-4.570156 5.556641,-7.810547 0.362482,-3.240391 -0.782576,-6.7935 -3.25,-10.253906 l 0.07422,0.117187 c -2.161706,-3.822205 -5.127788,-8.56767 -7.189453,-13.03125 -2.061666,-4.463579 -3.022392,-8.57288 -1.990235,-10.84375 0.05018,-0.110399 0.276122,-0.359546 0.8125,-0.59375 0.536379,-0.234203 1.31294,-0.428143 2.152344,-0.554687 1.678809,-0.253089 3.602447,-0.258573 4.712891,-0.242188 a 1.3230489,1.3230489 0 0 0 0.01953,0 c 3.170009,-1.1e-5 5.891046,-0.651531 7.933594,-2.164062 2.042547,-1.512531 3.277342,-3.89295 3.507812,-6.826172 a 1.3230489,1.3230489 0 0 0 0.0039,-0.103516 c -1.1e-5,-3.353818 -1.533039,-5.908892 -3.849609,-7.380859 -2.308544,-1.466866 -5.267217,-1.98273 -8.394531,-1.986328 -2.480815,-0.220486 -5.348735,-0.09155 -7.658203,-0.236328 -1.168572,-0.07326 -2.187298,-0.224629 -2.855469,-0.457031 -0.668171,-0.232403 -0.878006,-0.456573 -0.958984,-0.669922 a 1.3230489,1.3230489 0 0 0 -0.07227,-0.15625 c -0.128479,-0.2394 -0.132175,-0.322138 0.04687,-0.777344 0.17905,-0.455206 0.606778,-1.130989 1.130859,-1.945313 1.046429,-1.625953 2.448883,-3.895917 2.539063,-6.998046 C 69.057153,17.153824 67.192672,11.917 63.75,8.25 60.301637,4.5769376 55.30782,2.5117007 49.630859,2.5117188 Z m 0,2.6445312 c 5.041658,-1.6e-5 9.270515,1.7951573 12.189453,4.904297 2.918939,3.109139 4.565885,7.567119 4.238282,13.103515 a 1.3230489,1.3230489 0 0 0 -0.002,0.04102 c -0.06524,2.360339 -1.096099,4.062729 -2.119141,5.652344 -0.511521,0.794807 -1.027364,1.539288 -1.369141,2.408203 -0.332236,0.844659 -0.415505,1.946246 0.06445,2.912109 0.460769,1.115192 1.467172,1.794212 2.513672,2.158203 1.07297,0.373199 2.277804,0.519196 3.560547,0.59961 2.565487,0.160828 5.47012,0.02849 7.669922,0.232422 a 1.3230489,1.3230489 0 0 0 0.121094,0.0059 c 2.832884,1e-5 5.339475,0.519292 7.005859,1.578125 1.653548,1.050677 2.598663,2.516906 2.613281,5.097656 -0.194786,2.310268 -1.023069,3.808499 -2.43164,4.851563 -1.42178,1.052845 -3.555172,1.644521 -6.357422,1.644531 h 0.01953 c -1.15403,-0.01703 -3.18686,-0.02394 -5.146484,0.271484 -0.979812,0.147712 -1.94494,0.365578 -2.816406,0.746094 -0.871467,0.380516 -1.719056,0.949056 -2.16211,1.923828 -1.685741,3.708834 -0.167901,8.359475 1.998047,13.048828 2.165948,4.689354 5.175557,9.491082 7.287109,13.22461 a 1.3230489,1.3230489 0 0 0 0.07422,0.115234 c 2.193589,3.07637 3.042575,6.017886 2.773438,8.423828 -0.269138,2.405943 -1.569573,4.37392 -4.177735,5.775391 -2.497686,1.341913 -5.146592,1.063675 -7.705078,-0.263672 -2.558486,-1.327346 -4.909369,-3.749683 -6.357422,-6.443359 a 1.3230489,1.3230489 0 0 0 -0.03516,-0.0625 c 0,0 -2.017009,-3.315605 -4.244141,-6.65625 -1.113565,-1.670323 -2.277411,-3.347165 -3.294921,-4.646485 -0.508756,-0.649659 -0.976628,-1.20241 -1.419922,-1.640625 -0.221647,-0.219107 -0.434158,-0.409607 -0.681641,-0.580078 -0.247483,-0.17047 -0.518038,-0.368213 -1.054687,-0.396484 -0.582695,-0.0307 -0.880826,0.17077 -1.146485,0.333984 -0.265659,0.163215 -0.493279,0.349885 -0.732422,0.566406 -0.478284,0.433044 -0.989777,0.98858 -1.550781,1.646485 -1.122007,1.315811 -2.423363,3.029256 -3.673828,4.74414 -2.50093,3.42977 -4.791016,6.859375 -4.791016,6.859375 a 1.3230489,1.3230489 0 0 0 -0.06445,0.107422 c -1.456917,2.710165 -3.624043,4.934 -5.982422,6.083985 -2.358378,1.149984 -4.836156,1.303011 -7.388672,-0.06836 -2.686613,-1.443627 -3.932475,-3.064819 -4.21875,-5.117187 -0.286274,-2.052368 0.481799,-4.781019 2.585938,-8.183594 a 1.3230489,1.3230489 0 0 0 0.01563,-0.02734 c 2.450307,-4.169937 5.397038,-9.174708 7.517578,-13.878906 2.12054,-4.704198 3.609732,-9.072266 2.392578,-12.501953 -0.417205,-1.1756 -1.246695,-2.057 -2.189453,-2.5625 -0.942758,-0.5055 -1.963782,-0.691963 -2.964844,-0.771484 -2.002123,-0.159044 -4.051348,0.0845 -5.271484,-0.06055 a 1.3230489,1.3230489 0 0 0 -0.15625,-0.0098 c -2.832886,-1e-5 -5.052583,-0.517348 -6.457031,-1.533203 -1.404449,-1.015855 -2.205068,-2.501484 -2.205078,-5.191406 9e-6,-2.659287 0.857721,-4.087957 2.36914,-5.091797 1.51142,-1.00384 3.863934,-1.494131 6.707031,-1.494141 l -0.06055,-0.002 c 6.397442,0.292899 9.529328,0.102266 11.470703,-0.417969 1.941375,-0.520235 2.667837,-1.60109 3.101562,-1.974609 a 1.3230489,1.3230489 0 0 0 0.136719,-0.136719 c 0.389764,-0.449933 0.556296,-1.069971 0.542969,-1.578125 -0.01333,-0.508154 -0.147991,-0.939908 -0.316407,-1.359375 -0.33683,-0.838933 -0.843731,-1.661439 -1.375,-2.580078 -1.062537,-1.837277 -2.207229,-3.988619 -2.36914,-6.253906 a 1.3230489,1.3230489 0 0 0 -0.01172,-0.09766 C 33.030287,13.945152 39.69548,5.1562172 49.630859,5.15625 Z"
       id="path22" /></g></svg>
