<?xml version="1.0" encoding="UTF-8" standalone="no"?>
<svg
   height="100mm"
   viewBox="0 0 100 100"
   width="100mm"
   version="1.1"
   id="svg1"
   sodipodi:docname="item.snowflake.stripe.h.svg"
   xml:space="preserve"
   inkscape:version="1.4 (e7c3feb1, 2024-10-09)"
   xmlns:inkscape="http://www.inkscape.org/namespaces/inkscape"
   xmlns:sodipodi="http://sodipodi.sourceforge.net/DTD/sodipodi-0.dtd"
   xmlns:xlink="http://www.w3.org/1999/xlink"
   xmlns="http://www.w3.org/2000/svg"
   xmlns:svg="http://www.w3.org/2000/svg"><defs
     id="defs1"><linearGradient
       id="linearGradient1"
       inkscape:collect="always"><stop
         style="stop-color:#f2e5d9;stop-opacity:1;"
         offset="0"
         id="stop1" /><stop
         style="stop-color:#fbf7f4;stop-opacity:1;"
         offset="1"
         id="stop2" /></linearGradient><linearGradient
       id="linearGradient25"
       inkscape:collect="always"><stop
         style="stop-color:#9d5a16;stop-opacity:1;"
         offset="0"
         id="stop25" /><stop
         style="stop-color:#9c5916;stop-opacity:1;"
         offset="1"
         id="stop26" /></linearGradient><linearGradient
       inkscape:collect="always"
       xlink:href="#linearGradient25"
       id="linearGradient26"
       x1="49.095547"
       y1="16.879429"
       x2="49.095547"
       y2="81.674667"
       gradientUnits="userSpaceOnUse"
       gradientTransform="matrix(1.5433234,0,0,1.5433234,-25.770306,-26.050418)" /><linearGradient
       inkscape:collect="always"
       xlink:href="#linearGradient1"
       id="linearGradient2"
       x1="50"
       y1="4.3574219"
       x2="50"
       y2="95.642578"
       gradientUnits="userSpaceOnUse" /></defs><sodipodi:namedview
     id="namedview1"
     pagecolor="#ffffff"
     bordercolor="#666666"
     borderopacity="1.0"
     inkscape:showpageshadow="2"
     inkscape:pageopacity="0.0"
     inkscape:pagecheckerboard="0"
     inkscape:deskcolor="#d1d1d1"
     inkscape:document-units="mm"
     showgrid="false"
     inkscape:zoom="1.4578542"
     inkscape:cx="188.63341"
     inkscape:cy="188.97638"
     inkscape:window-width="1424"
     inkscape:window-height="770"
     inkscape:window-x="7"
     inkscape:window-y="25"
     inkscape:window-maximized="0"
     inkscape:current-layer="svg1" /><circle
     style="fill:url(#linearGradient26);stroke:none;stroke-width:3.08665;stroke-linejoin:round;stroke-miterlimit:3.8637;stroke-dasharray:none"
     id="path13"
     cx="50"
     cy="50"
     r="50" /><path
     style="fill:url(#linearGradient2);stroke-linejoin:round;stroke-miterlimit:3.8637"
     d="M 50,4.3574219 C 24.807937,4.3574219 4.3574219,24.807937 4.3574219,50 4.3574219,75.192063 24.807937,95.642578 50,95.642578 75.192063,95.642578 95.642578,75.192063 95.642578,50 95.642578,24.807937 75.192063,4.3574219 50,4.3574219 Z m 0,2.6464843 C 73.762149,7.0039063 92.996094,26.237851 92.996094,50 92.996094,73.762149 73.762149,92.996094 50,92.996094 26.237851,92.996094 7.0039063,73.762149 7.0039062,50 7.0039063,26.237851 26.237851,7.0039062 50,7.0039062 Z"
     id="circle51" /><path
     id="path3"
     style="fill:#4d99e5;fill-opacity:1;stroke-width:1.32292;stroke-linecap:round;stroke-linejoin:round;stroke-dasharray:none"
     d="M 11.7321 30.393494 C 10.766057 32.276757 9.9357272 34.239548 9.2521484 36.271688 L 90.747432 36.271688 C 90.063858 34.239574 89.234029 32.276735 88.267997 30.393494 L 11.7321 30.393494 z " /><path
     id="path4"
     style="fill:#4de54d;fill-opacity:1;stroke-width:1.32292;stroke-linecap:round;stroke-linejoin:round;stroke-dasharray:none"
     d="M 7.8449992 41.505994 C 7.461657 43.421951 7.2103658 45.38507 7.0905233 47.384188 L 92.909574 47.384188 C 92.789732 45.38507 92.537924 43.421951 92.154582 41.505994 L 7.8449992 41.505994 z " /><path
     id="path5"
     style="fill:#e54d66;fill-opacity:1;stroke-width:1.32292;stroke-linecap:round;stroke-linejoin:round;stroke-dasharray:none"
     d="M 7.0905233 52.61591 C 7.2104195 54.615923 7.4618881 56.579913 7.845516 58.496688 L 92.154065 58.496688 C 92.537693 56.579913 92.789678 54.615923 92.909574 52.61591 L 7.0905233 52.61591 z " /><path
     id="path6"
     style="fill:#e5e54d;fill-opacity:1;stroke-width:1.32292;stroke-linecap:round;stroke-linejoin:round;stroke-dasharray:none"
     d="M 9.2521484 63.727893 C 9.9357411 65.76011 10.766022 67.723273 11.7321 69.606604 L 88.267997 69.606604 C 89.234089 67.723247 90.064351 65.76014 90.747949 63.727893 L 9.2521484 63.727893 z " /></svg>
