<?xml version="1.0" encoding="UTF-8" standalone="no"?>
<svg
   height="100mm"
   viewBox="0 0 100 100"
   width="100mm"
   version="1.1"
   id="svg1"
   sodipodi:docname="item.snowflake.stripe.v.svg"
   xml:space="preserve"
   inkscape:version="1.4 (e7c3feb1, 2024-10-09)"
   xmlns:inkscape="http://www.inkscape.org/namespaces/inkscape"
   xmlns:sodipodi="http://sodipodi.sourceforge.net/DTD/sodipodi-0.dtd"
   xmlns:xlink="http://www.w3.org/1999/xlink"
   xmlns="http://www.w3.org/2000/svg"
   xmlns:svg="http://www.w3.org/2000/svg"><defs
     id="defs1"><linearGradient
       id="linearGradient1"
       inkscape:collect="always"><stop
         style="stop-color:#f2e5d9;stop-opacity:1;"
         offset="0"
         id="stop1" /><stop
         style="stop-color:#fbf7f4;stop-opacity:1;"
         offset="1"
         id="stop2" /></linearGradient><linearGradient
       id="linearGradient25"
       inkscape:collect="always"><stop
         style="stop-color:#9d5a16;stop-opacity:1;"
         offset="0"
         id="stop25" /><stop
         style="stop-color:#9c5916;stop-opacity:1;"
         offset="1"
         id="stop26" /></linearGradient><linearGradient
       inkscape:collect="always"
       xlink:href="#linearGradient25"
       id="linearGradient26"
       x1="49.095547"
       y1="16.879429"
       x2="49.095547"
       y2="81.674667"
       gradientUnits="userSpaceOnUse"
       gradientTransform="matrix(1.5433234,0,0,1.5433234,-25.770306,-26.050418)" /><linearGradient
       inkscape:collect="always"
       xlink:href="#linearGradient1"
       id="linearGradient2"
       x1="50"
       y1="4.3574219"
       x2="50"
       y2="95.642578"
       gradientUnits="userSpaceOnUse" /></defs><sodipodi:namedview
     id="namedview1"
     pagecolor="#ffffff"
     bordercolor="#666666"
     borderopacity="1.0"
     inkscape:showpageshadow="2"
     inkscape:pageopacity="0.0"
     inkscape:pagecheckerboard="0"
     inkscape:deskcolor="#d1d1d1"
     inkscape:document-units="mm"
     showgrid="false"
     inkscape:zoom="1.4578542"
     inkscape:cx="188.6334"
     inkscape:cy="188.97637"
     inkscape:window-width="1424"
     inkscape:window-height="770"
     inkscape:window-x="7"
     inkscape:window-y="25"
     inkscape:window-maximized="0"
     inkscape:current-layer="svg1" /><circle
     style="fill:url(#linearGradient26);stroke:none;stroke-width:3.08665;stroke-linejoin:round;stroke-miterlimit:3.8637;stroke-dasharray:none"
     id="path13"
     cx="50"
     cy="50"
     r="50" /><path
     style="fill:url(#linearGradient2);stroke-linejoin:round;stroke-miterlimit:3.8637"
     d="M 50,4.3574219 C 24.807937,4.3574219 4.3574219,24.807937 4.3574219,50 4.3574219,75.192063 24.807937,95.642578 50,95.642578 75.192063,95.642578 95.642578,75.192063 95.642578,50 95.642578,24.807937 75.192063,4.3574219 50,4.3574219 Z m 0,2.6464843 C 73.762149,7.0039063 92.996094,26.237851 92.996094,50 92.996094,73.762149 73.762149,92.996094 50,92.996094 26.237851,92.996094 7.0039063,73.762149 7.0039062,50 7.0039063,26.237851 26.237851,7.0039062 50,7.0039062 Z"
     id="circle51" /><path
     id="path3"
     style="fill:#4d99e5;fill-opacity:1;stroke-width:1.32292;stroke-linecap:round;stroke-linejoin:round;stroke-dasharray:none"
     d="M 63.72841 9.2521484 L 63.72841 90.747432 C 65.760435 90.063874 67.723439 89.23399 69.606604 88.267997 L 69.606604 11.7321 C 67.723417 10.766096 65.760462 9.9357115 63.72841 9.2521484 z " /><path
     id="path4"
     style="fill:#4d99e5;fill-opacity:1;stroke-width:1.32292;stroke-linecap:round;stroke-linejoin:round;stroke-dasharray:none"
     d="M 52.61591 7.0905233 L 52.61591 92.909574 C 54.615028 92.789732 56.578147 92.537924 58.494104 92.154582 L 58.494104 7.8449992 C 56.578147 7.461657 54.615028 7.2103658 52.61591 7.0905233 z " /><path
     id="path5"
     style="fill:#4d99e5;fill-opacity:1;stroke-width:1.32292;stroke-linecap:round;stroke-linejoin:round;stroke-dasharray:none"
     d="M 47.384188 7.0905233 C 45.384174 7.2104195 43.420184 7.4618881 41.50341 7.845516 L 41.50341 92.154065 C 43.420184 92.537693 45.384174 92.789678 47.384188 92.909574 L 47.384188 7.0905233 z " /><path
     id="path6"
     style="fill:#4d99e5;fill-opacity:1;stroke-width:1.32292;stroke-linecap:round;stroke-linejoin:round;stroke-dasharray:none"
     d="M 36.271688 9.2521484 C 34.239548 9.9357272 32.276757 10.766057 30.393494 11.7321 L 30.393494 88.267997 C 32.276735 89.234029 34.239574 90.063858 36.271688 90.747432 L 36.271688 9.2521484 z " /></svg>
