<?xml version="1.0" encoding="UTF-8" standalone="no"?>
<svg
   height="100mm"
   viewBox="0 0 100 100"
   width="100mm"
   version="1.1"
   id="svg1"
   sodipodi:docname="item.tree.stripe.h.svg"
   xml:space="preserve"
   inkscape:version="1.4 (e7c3feb1, 2024-10-09)"
   xmlns:inkscape="http://www.inkscape.org/namespaces/inkscape"
   xmlns:sodipodi="http://sodipodi.sourceforge.net/DTD/sodipodi-0.dtd"
   xmlns:xlink="http://www.w3.org/1999/xlink"
   xmlns="http://www.w3.org/2000/svg"
   xmlns:svg="http://www.w3.org/2000/svg"><defs
     id="defs1"><linearGradient
       id="linearGradient15"
       inkscape:collect="always"><stop
         style="stop-color:#f2e5d9;stop-opacity:1;"
         offset="0"
         id="stop15" /><stop
         style="stop-color:#fbf7f4;stop-opacity:1;"
         offset="1"
         id="stop16" /></linearGradient><linearGradient
       id="linearGradient9"
       inkscape:collect="always"><stop
         style="stop-color:#9d5a16;stop-opacity:1;"
         offset="0"
         id="stop9" /><stop
         style="stop-color:#9c5916;stop-opacity:1;"
         offset="1"
         id="stop10" /></linearGradient><linearGradient
       inkscape:collect="always"
       xlink:href="#linearGradient9"
       id="linearGradient10"
       x1="49.833649"
       y1="16.809757"
       x2="49.833649"
       y2="81.76664"
       gradientUnits="userSpaceOnUse"
       gradientTransform="matrix(1.4161838,0,0,1.4161838,-20.573604,-19.801147)" /><linearGradient
       inkscape:collect="always"
       xlink:href="#linearGradient15"
       id="linearGradient16"
       x1="49.934048"
       y1="20.167641"
       x2="49.934048"
       y2="79.04953"
       gradientUnits="userSpaceOnUse"
       gradientTransform="matrix(1.4161838,0,0,1.4161838,-20.573604,-19.801147)" /></defs><sodipodi:namedview
     id="namedview1"
     pagecolor="#ffffff"
     bordercolor="#666666"
     borderopacity="1.0"
     inkscape:showpageshadow="2"
     inkscape:pageopacity="0.0"
     inkscape:pagecheckerboard="0"
     inkscape:deskcolor="#d1d1d1"
     inkscape:document-units="mm"
     showgrid="false"
     inkscape:zoom="1.2661105"
     inkscape:cx="108.20541"
     inkscape:cy="182.05362"
     inkscape:window-width="1424"
     inkscape:window-height="770"
     inkscape:window-x="7"
     inkscape:window-y="25"
     inkscape:window-maximized="0"
     inkscape:current-layer="svg1" /><path
     style="font-variation-settings:normal;fill:url(#linearGradient10);fill-opacity:1;stroke:none;stroke-width:1.8735;stroke-linecap:butt;stroke-linejoin:miter;stroke-miterlimit:4;stroke-dasharray:none;stroke-dashoffset:0;stroke-opacity:1;stop-color:#000000"
     d="M 50.204919,2.0538271e-4 C 43.659283,-0.02180211 22.280891,26.969286 22.510657,29.593435 c 0.258808,2.955829 4.449205,3.33932 4.787142,5.004738 0.708853,3.493363 -15.502336,12.659722 -15.014214,19.148561 0.200059,2.65947 4.676705,4.429488 5.657528,5.65753 0.980824,1.228042 -16.0888914,16.53951 -13.7086277,21.542128 2.3802637,5.002619 28.7109597,7.168832 30.0284247,8.486295 1.317464,1.317463 1.762217,8.994601 2.828764,10.009474 1.066548,1.014869 24.679534,0.554488 26.111677,-0.652789 1.432142,-1.207277 1.271244,-7.671853 2.393567,-9.139087 1.122323,-1.467235 26.985589,-3.891193 30.028426,-9.356681 3.042836,-5.465488 -13.578756,-19.337089 -13.491032,-20.671746 0.08772,-1.334657 6.157004,-2.201986 5.65753,-7.398304 C 87.268618,46.80095 72.017369,36.45447 71.905239,34.598173 71.793105,32.741876 77.07456,32.699929 77.127575,28.287851 77.181797,23.775973 55.817776,0.01906753 50.204919,2.0538271e-4 Z"
     id="path9"
     sodipodi:nodetypes="zzsszzzzzzzzszzz" /><path
     id="path3"
     style="fill:#4de54d;fill-opacity:1;stroke-width:1.32292;stroke-linecap:round;stroke-linejoin:round;stroke-dasharray:none"
     d="M 33.239832 31.845601 C 33.7334 32.196516 34.216547 32.62722 34.435624 33.418115 C 34.70574 34.393265 34.490173 35.369825 34.087842 36.240165 C 33.853887 36.746266 33.537913 37.236512 33.185055 37.723796 L 67.197965 37.723796 C 66.731002 37.191918 66.312605 36.676563 66.009924 36.169885 C 65.798528 35.816015 65.623146 35.461379 65.527266 35.035071 C 65.431386 34.608764 65.431481 34.051579 65.7071 33.548857 C 66.064934 32.896179 66.529026 32.348701 67.018648 31.845601 L 33.239832 31.845601 z " /><path
     id="path4"
     style="fill:#4de54d;fill-opacity:1;stroke-width:1.32292;stroke-linecap:round;stroke-linejoin:round;stroke-dasharray:none"
     d="M 28.062887 42.958101 C 27.692342 43.287378 27.343326 43.612616 26.966829 43.943571 C 25.073335 45.608027 23.159161 47.281458 21.652425 48.836296 L 78.959521 48.836296 C 77.342277 47.199849 75.314093 45.372872 73.318522 43.583903 C 73.080206 43.37026 72.864098 43.169972 72.628125 42.958101 L 28.062887 42.958101 z " /><path
     id="path5"
     style="fill:#4de54d;fill-opacity:1;stroke-width:1.32292;stroke-linecap:round;stroke-linejoin:round;stroke-dasharray:none"
     d="M 19.909379 54.067501 C 20.231981 54.27667 20.601222 54.499857 20.988383 54.730509 C 21.75311 55.186097 22.583811 55.67244 23.300903 56.337646 C 24.017995 57.002851 24.681666 57.985087 24.621236 59.183468 C 24.60665 59.472736 24.548351 59.717991 24.472925 59.948796 L 75.993294 59.948796 C 75.984393 59.844431 75.961859 59.750074 75.964872 59.63667 C 75.997619 58.404394 76.69026 57.437221 77.437651 56.720569 C 78.185042 56.003918 79.048779 55.443922 79.83182 54.916028 C 80.274089 54.617868 80.668839 54.334995 81.014176 54.067501 L 19.909379 54.067501 z " /><path
     id="path6"
     style="fill:#4de54d;fill-opacity:1;stroke-width:1.32292;stroke-linecap:round;stroke-linejoin:round;stroke-dasharray:none"
     d="M 20.611662 65.180001 C 19.402927 66.568747 18.092506 68.04005 16.769519 69.564229 C 16.332853 70.067301 15.939805 70.558053 15.519983 71.058195 L 85.676424 71.058195 C 85.129793 70.482792 84.598475 69.9099 84.017611 69.332202 C 82.563074 67.885595 81.113551 66.491318 79.807015 65.180001 L 20.611662 65.180001 z " /><path
     style="fill:url(#linearGradient16)"
     d="M 50.441406,3.3769531 C 49.856499,3.3872804 49.505998,3.573623 49.113281,3.78125 48.720565,3.988877 48.315437,4.2544166 47.871094,4.578125 46.982407,5.2255418 45.941197,6.1053018 44.78125,7.1582031 c -2.319894,2.1058027 -5.098497,4.8998319 -7.783203,7.7656249 -2.684706,2.865793 -5.269363,5.79753 -7.191406,8.185547 -0.961022,1.194009 -1.754929,2.249007 -2.328125,3.121094 -0.286598,0.436043 -0.517431,0.823253 -0.695313,1.195312 -0.177882,0.372059 -0.372429,0.671846 -0.314453,1.333985 0.09188,1.049364 0.635046,1.910299 1.255859,2.541015 0.620814,0.630717 1.334718,1.089608 2.001953,1.490235 0.667236,0.400627 1.29721,0.742131 1.714844,1.023437 0.417634,0.281306 0.505292,0.525125 0.445313,0.308594 0.04941,0.178392 0.03932,0.487572 -0.201172,1.007812 -0.240491,0.520241 -0.701104,1.190471 -1.328125,1.919922 -1.254042,1.458903 -3.150101,3.159934 -5.136719,4.90625 -1.986618,1.746316 -4.064879,3.543813 -5.742187,5.314453 -1.677308,1.770641 -3.037311,3.468816 -3.316407,5.445313 -0.166005,1.175621 0.5256,2.158486 1.220703,2.771484 0.695104,0.612999 1.497454,1.06534 2.25,1.513672 0.752547,0.448332 1.451464,0.889748 1.867188,1.275391 0.415724,0.385643 0.488473,0.575971 0.478516,0.773437 0.01137,-0.225538 -0.09647,0.265806 -0.476563,0.833985 -0.380089,0.568178 -0.959786,1.307837 -1.65625,2.140625 -1.392927,1.665575 -3.257607,3.711816 -5.074219,5.804687 -1.816611,2.092871 -3.585213,4.224543 -4.8300777,6.158203 -0.6224326,0.966831 -1.1199083,1.880573 -1.4179688,2.785156 -0.2980605,0.904584 -0.4332815,1.887737 0.025391,2.820313 0.4751297,0.966038 1.3015632,1.459033 2.2656249,1.931641 0.964062,0.472607 2.133087,0.874824 3.464844,1.253906 2.663513,0.758163 5.971077,1.403757 9.27539,1.986328 3.304314,0.582571 6.602962,1.09975 9.175782,1.576172 1.28641,0.238211 2.392973,0.467834 3.203125,0.679687 0.810151,0.211854 1.396968,0.552637 1.214843,0.398438 0.188272,0.159403 0.521279,0.693519 0.765625,1.474609 0.244347,0.78109 0.428884,1.770254 0.580079,2.759766 0.151194,0.989512 0.270314,1.978177 0.423828,2.832031 0.07676,0.426927 0.15882,0.819473 0.279297,1.193359 0.120476,0.373887 0.23482,0.747617 0.660156,1.152344 0.400909,0.381485 0.647366,0.400933 0.908203,0.47461 0.260837,0.07368 0.531541,0.12439 0.837891,0.169921 0.612698,0.09106 1.363942,0.155039 2.234375,0.203125 1.740865,0.09617 3.939875,0.121356 6.154296,0.08398 2.214422,-0.03737 4.437372,-0.136173 6.222657,-0.300781 0.892642,-0.0823 1.672146,-0.180234 2.316406,-0.302735 0.64426,-0.1225 1.066105,-0.08827 1.742187,-0.658203 0.745557,-0.628494 0.961822,-1.373547 1.203125,-2.173828 0.241304,-0.800281 0.426944,-1.692857 0.625,-2.595703 0.396113,-1.805692 0.927886,-3.655722 1.515625,-4.396485 -0.204067,0.257198 0.251038,-0.144379 1.021485,-0.384765 0.770447,-0.240386 1.858293,-0.495551 3.134765,-0.751953 2.552946,-0.512804 5.867409,-1.04211 9.207032,-1.644532 3.339623,-0.602421 6.70271,-1.273573 9.435547,-2.111328 1.366418,-0.418877 2.575153,-0.875481 3.578125,-1.423828 1.002972,-0.548347 1.860767,-1.17629 2.320312,-2.183594 0.434845,-0.95316 0.356915,-1.997296 0.05664,-2.939453 -0.300275,-0.942156 -0.820101,-1.852646 -1.46875,-2.78125 -1.297299,-1.857207 -3.137648,-3.786579 -5.019532,-5.658203 -1.881883,-1.871624 -3.805399,-3.676809 -5.216796,-5.160156 -0.705699,-0.741674 -1.28453,-1.407374 -1.644532,-1.914063 -0.360001,-0.506688 -0.406289,-0.894825 -0.412109,-0.675781 0.0073,-0.273305 0.169405,-0.605605 0.660156,-1.076172 0.490751,-0.470567 1.249,-0.986223 2.042969,-1.521484 0.793969,-0.535261 1.62524,-1.083255 2.310547,-1.818359 0.685306,-0.735104 1.256399,-1.871753 0.978515,-3.074219 -0.406529,-1.759151 -1.79093,-3.235031 -3.535156,-5.021485 -1.744226,-1.786453 -3.907691,-3.720143 -5.982422,-5.580078 -2.074731,-1.859934 -4.062468,-3.651338 -5.394531,-5.066406 -0.666031,-0.707534 -1.167182,-1.330914 -1.408203,-1.734375 -0.05708,-0.09555 -0.0544,-0.107806 -0.08203,-0.169922 0.5214,-0.822549 1.539419,-1.730405 2.65039,-2.666015 1.18403,-0.997137 2.566304,-2.024441 2.728516,-3.845704 0.06801,-0.76356 -0.155392,-0.93466 -0.322266,-1.261718 -0.166874,-0.327059 -0.381732,-0.677497 -0.648437,-1.080078 -0.53341,-0.805164 -1.273905,-1.807309 -2.173828,-2.958985 C 68.633746,20.52868 66.206594,17.644979 63.664062,14.8125 61.121531,11.980021 58.469263,9.2037786 56.207031,7.1074219 55.075915,6.0592435 54.046094,5.1811161 53.138672,4.5351562 52.23125,3.8891964 51.583306,3.3567936 50.441406,3.3769531 Z m 0.04687,2.6445313 c -0.302768,0.00535 0.366092,0.1352446 1.117188,0.6699218 0.751096,0.5346773 1.723332,1.3553555 2.804687,2.3574219 2.162711,2.0041329 4.777566,4.7398729 7.283203,7.5312499 2.505638,2.791378 4.908155,5.643738 6.65625,7.880859 0.874048,1.118561 1.585377,2.087508 2.052735,2.792969 0.212554,0.320844 0.357481,0.566626 0.453125,0.746094 -0.08051,0.309185 -0.635206,1.049145 -1.710938,1.955078 -1.131344,0.952768 -2.568694,2.009076 -3.4375,3.59375 -0.275619,0.502722 -0.275567,1.060021 -0.179687,1.486328 0.09588,0.426308 0.271026,0.780896 0.482422,1.134766 0.422791,0.707739 1.01931,1.41311 1.751953,2.191406 1.465285,1.556592 3.480553,3.361506 5.55664,5.222656 2.076088,1.861151 4.210043,3.773723 5.855469,5.458985 1.645426,1.685261 2.742289,3.305131 2.849609,3.769531 0.04517,0.195456 0.03537,0.277496 -0.335937,0.675781 -0.371304,0.398285 -1.072428,0.899841 -1.855469,1.427735 -0.783041,0.527894 -1.64714,1.088036 -2.394531,1.804687 -0.747391,0.716652 -1.439909,1.68374 -1.472656,2.916016 -0.02582,0.971834 0.40952,1.586462 0.90039,2.277343 0.490871,0.690882 1.133489,1.417556 1.882813,2.205079 1.498647,1.575045 3.425128,3.378542 5.269531,5.21289 1.844403,1.834348 3.605372,3.707716 4.716797,5.298828 0.555713,0.795556 0.94258,1.520501 1.117187,2.06836 0.174608,0.547858 0.141166,0.849505 0.05469,1.039062 -0.06178,0.135414 -0.431778,0.549018 -1.181641,0.958985 -0.749862,0.409966 -1.820285,0.827455 -3.083984,1.214843 -2.527398,0.774778 -5.824536,1.443 -9.128906,2.039063 -3.304371,0.596063 -6.616836,1.12381 -9.257813,1.654297 -1.320488,0.265243 -2.471643,0.529316 -3.404297,0.820312 -0.932653,0.290996 -1.64561,0.434953 -2.304687,1.265625 -1.2323,1.55314 -1.626938,3.640446 -2.029297,5.47461 -0.201179,0.917081 -0.382983,1.770684 -0.572266,2.398437 -0.189282,0.627753 -0.467458,0.992004 -0.375,0.914063 0.349533,-0.294652 -0.02633,-0.01398 -0.53125,0.08203 -0.50492,0.09601 -1.225252,0.190021 -2.066406,0.267578 -1.682307,0.155113 -3.857935,0.254503 -6.021484,0.291016 -2.163549,0.03651 -4.321478,0.0088 -5.964844,-0.08203 -0.821683,-0.04539 -1.518227,-0.107291 -1.992188,-0.177734 -0.135768,-0.02018 -0.198645,-0.03742 -0.291015,-0.05664 -0.05547,-0.18394 -0.118851,-0.446776 -0.179688,-0.785156 -0.131691,-0.732479 -0.25308,-1.722886 -0.412109,-2.763672 -0.159029,-1.040786 -0.354789,-2.134826 -0.671875,-3.148437 -0.317086,-1.013612 -0.727565,-1.984935 -1.578125,-2.705078 -0.70154,-0.593973 -1.330092,-0.697367 -2.255859,-0.939454 -0.925768,-0.242086 -2.07615,-0.476933 -3.392579,-0.720703 -2.632856,-0.487539 -5.923775,-1.003285 -9.195312,-1.580078 -3.271537,-0.576792 -6.525878,-1.218192 -9.011719,-1.925781 -1.24292,-0.353795 -2.295775,-0.728261 -3.02539,-1.085938 -0.729615,-0.357676 -1.068678,-0.747129 -1.056641,-0.722656 -0.0044,-0.009 -0.06811,-0.2678 0.115234,-0.824219 0.18334,-0.556418 0.577504,-1.323189 1.128907,-2.179687 1.102804,-1.712997 2.815076,-3.797007 4.603515,-5.857422 1.788439,-2.060414 3.652441,-4.104356 5.105469,-5.841797 0.726514,-0.86872 1.349194,-1.657094 1.824219,-2.367187 0.475025,-0.710094 0.87531,-1.248413 0.921875,-2.171875 0.06043,-1.198381 -0.603221,-2.180498 -1.320313,-2.845703 -0.717092,-0.665206 -1.547773,-1.151834 -2.3125,-1.607422 -0.764726,-0.455589 -1.467588,-0.884499 -1.855469,-1.226563 -0.38788,-0.342064 -0.355608,-0.389315 -0.351562,-0.417969 0.119265,-0.84461 1.078301,-2.369623 2.617187,-3.99414 1.538887,-1.624517 3.572408,-3.393917 5.56836,-5.148438 1.995951,-1.75452 3.953042,-3.488725 5.396484,-5.167968 0.721721,-0.839622 1.322278,-1.664816 1.72461,-2.535157 0.402331,-0.87034 0.617772,-1.847115 0.347656,-2.822265 -0.266852,-0.963366 -0.925556,-1.398106 -1.517578,-1.796875 -0.592023,-0.398769 -1.23487,-0.740277 -1.830078,-1.097657 -0.595208,-0.357379 -1.134097,-0.730164 -1.478516,-1.080078 -0.344419,-0.349913 -0.479716,-0.617436 -0.505859,-0.916015 0.03281,0.37476 -0.02772,0.235933 0.06641,0.03906 0.09412,-0.196871 0.273347,-0.508257 0.519531,-0.882812 0.492368,-0.749111 1.248451,-1.759486 2.177734,-2.914063 1.858568,-2.309153 4.414505,-5.210502 7.0625,-8.037109 2.647996,-2.826607 5.395132,-5.58583 7.63086,-7.6152345 1.117864,-1.0147021 2.111005,-1.8480816 2.86914,-2.4003906 0.379068,-0.2761545 0.701565,-0.4802591 0.919922,-0.5957032 0.218357,-0.115444 0.361236,-0.103539 0.138672,-0.099609 z"
     id="path10" /></svg>
