<?xml version="1.0" encoding="UTF-8" standalone="no"?>
<svg
   height="100mm"
   viewBox="0 0 100 100"
   width="100mm"
   version="1.1"
   id="svg1"
   sodipodi:docname="item.heart.svg"
   xml:space="preserve"
   inkscape:version="1.4 (e7c3feb1, 2024-10-09)"
   xmlns:inkscape="http://www.inkscape.org/namespaces/inkscape"
   xmlns:sodipodi="http://sodipodi.sourceforge.net/DTD/sodipodi-0.dtd"
   xmlns:xlink="http://www.w3.org/1999/xlink"
   xmlns="http://www.w3.org/2000/svg"
   xmlns:svg="http://www.w3.org/2000/svg"><defs
     id="defs1"><linearGradient
       id="linearGradient1"
       inkscape:collect="always"><stop
         style="stop-color:#f8f1eb;stop-opacity:1;"
         offset="0"
         id="stop2" /><stop
         style="stop-color:#f5ebe2;stop-opacity:1;"
         offset="1"
         id="stop1" /></linearGradient><linearGradient
       id="linearGradient19"
       inkscape:collect="always"><stop
         style="stop-color:#f2e5d9;stop-opacity:1;"
         offset="0"
         id="stop19" /><stop
         style="stop-color:#fbf7f4;stop-opacity:1;"
         offset="1"
         id="stop20" /></linearGradient><linearGradient
       id="linearGradient17"
       inkscape:collect="always"><stop
         style="stop-color:#9d5a16;stop-opacity:1;"
         offset="0"
         id="stop17" /><stop
         style="stop-color:#9c5916;stop-opacity:1;"
         offset="1"
         id="stop18" /></linearGradient><linearGradient
       inkscape:collect="always"
       xlink:href="#linearGradient17"
       id="linearGradient18"
       x1="49.243752"
       y1="18.683475"
       x2="49.243752"
       y2="85.5345"
       gradientUnits="userSpaceOnUse"
       gradientTransform="matrix(1.5096128,0,0,1.5096128,-24.161384,-28.381332)" /><linearGradient
       inkscape:collect="always"
       xlink:href="#linearGradient19"
       id="linearGradient20"
       x1="49.369003"
       y1="20.337389"
       x2="49.369003"
       y2="82.964615"
       gradientUnits="userSpaceOnUse"
       gradientTransform="matrix(1.5096128,0,0,1.5096128,-24.161384,-28.381332)" /><linearGradient
       inkscape:collect="always"
       xlink:href="#linearGradient1"
       id="linearGradient2"
       x1="54.082619"
       y1="53.672794"
       x2="68.346214"
       y2="51.157734"
       gradientUnits="userSpaceOnUse" /></defs><sodipodi:namedview
     id="namedview1"
     pagecolor="#ffffff"
     bordercolor="#666666"
     borderopacity="1.0"
     inkscape:showpageshadow="2"
     inkscape:pageopacity="0.0"
     inkscape:pagecheckerboard="0"
     inkscape:deskcolor="#d1d1d1"
     inkscape:document-units="mm"
     showgrid="false"
     inkscape:zoom="1.3896563"
     inkscape:cx="174.14377"
     inkscape:cy="188.89562"
     inkscape:window-width="1424"
     inkscape:window-height="770"
     inkscape:window-x="7"
     inkscape:window-y="25"
     inkscape:window-maximized="0"
     inkscape:current-layer="svg1" /><path
     style="font-variation-settings:normal;vector-effect:none;fill:url(#linearGradient18);fill-opacity:1;stroke:none;stroke-width:0.399418px;stroke-linecap:butt;stroke-linejoin:miter;stroke-miterlimit:4;stroke-dasharray:none;stroke-dashoffset:0;stroke-opacity:1;stop-color:#000000"
     d="M 49.820331,13.306775 C 46.247407,13.19535 31.389653,-4.8602044 9.8673355,13.274575 6.5172632,16.097358 3.6373326,20.627577 1.2148675,26.536191 -3.2443611,37.41266 5.0349819,58.226323 18.483599,71.91802 c 7.400073,7.533829 23.76694,22.940729 31.336732,23.003498 7.569792,0.06277 24.67816,-14.960877 30.568932,-20.917382 C 91.927076,62.33758 104.27828,42.860062 98.554314,26.517798 97.084678,22.321899 94.073359,14.628098 89.42762,10.837865 71.876339,-3.4813694 53.579776,13.424021 49.820331,13.306775 Z"
     id="path11"
     sodipodi:nodetypes="sssszssss" /><path
     style="fill:url(#linearGradient20)"
     d="m 69.953125,8.0214844 c -5.48443,0.3771818 -9.686199,2.2555546 -12.792969,4.2636716 -2.07118,1.338745 -3.67349,2.730477 -4.859375,3.738281 -0.592942,0.503903 -1.085376,0.911219 -1.43164,1.148438 -0.346264,0.237219 -0.543677,0.218865 -0.296875,0.226562 0.182943,0.0057 -0.146932,-0.04747 -0.591797,-0.318359 -0.444865,-0.270891 -1.04614,-0.698264 -1.753907,-1.21289 C 46.811029,14.837935 44.953917,13.45786 42.708984,12.158203 38.21912,9.5588885 32.091217,7.2693976 24.763672,8.7539063 18.085783,10.1068 8.623141,15.014854 4.375,27.869141 0.35453311,40.03452 7.8216252,56.501043 20.740234,69.980469 c 6.423184,6.702024 12.812144,11.95133 18.074219,15.552734 2.631038,1.800702 4.978552,3.188168 6.931641,4.146484 1.953089,0.958317 3.425703,1.529282 4.763672,1.550782 0.826462,0.01328 1.545747,-0.246843 2.435546,-0.619141 0.8898,-0.372298 1.905468,-0.892338 3.033204,-1.535156 2.255472,-1.285637 4.952405,-3.063309 7.761718,-5.095703 C 69.35886,79.91568 75.396882,74.8646 79.072266,70.671875 82.611156,66.634856 88.307163,60.261593 92.429687,52.634766 96.552212,45.007938 99.136249,36.009877 96.175781,26.914062 91.969307,13.989986 81.728978,8.9093517 75.871094,8.1953125 73.750851,7.9368689 71.781268,7.8957571 69.953125,8.0214844 Z M 70.125,10.650391 c 1.661798,-0.109702 3.464979,-0.06713 5.425781,0.171875 4.696608,0.572486 14.234522,5.004961 18.109375,16.910156 2.661256,8.176507 0.371377,16.371982 -3.558594,23.642578 -3.92997,7.270596 -9.465691,13.498662 -13.019531,17.552734 -3.417346,3.898366 -9.391284,8.930251 -14.892578,12.910157 -2.750647,1.989952 -5.390244,3.724628 -7.521484,4.939453 -1.065621,0.607412 -2.006402,1.083903 -2.744141,1.392578 -0.737739,0.308675 -1.317505,0.414923 -1.371094,0.414062 -0.422133,-0.0068 -1.844,-0.397752 -3.640625,-1.279297 C 45.115485,86.423143 42.856876,85.093673 40.308594,83.349609 35.212029,79.861482 28.944244,74.717471 22.650391,68.150391 10.134928,55.091613 3.4137604,39.207913 6.8867187,28.699219 10.83413,16.754899 19.330069,12.552953 25.289062,11.345703 c 6.533397,-1.32362 11.916305,0.683117 16.09375,3.101563 2.088723,1.209223 3.853459,2.518121 5.28711,3.560546 0.716825,0.521213 1.348242,0.975594 1.933594,1.332032 0.585351,0.356437 1.083439,0.678073 1.886718,0.703125 0.83226,0.02596 1.351059,-0.329895 1.873047,-0.6875 0.521988,-0.357605 1.050197,-0.804682 1.652344,-1.316407 1.204294,-1.023448 2.689463,-2.311169 4.580078,-3.533203 2.835922,-1.833049 6.543902,-3.526364 11.529297,-3.855468 z"
     id="path18" /><path
     id="path8-5"
     style="fill:#f4eae0;stroke-width:1.32291667;stroke-linecap:round;stroke-linejoin:round;stroke-miterlimit:3.8637;stroke-dasharray:none;fill-opacity:1"
     d="m 53.31863,26.932388 a 3.0192256,3.0192256 0 0 1 -3.019226,3.019226 3.0192256,3.0192256 0 0 1 -3.019225,-3.019226 3.0192256,3.0192256 0 0 1 3.019225,-3.019225 3.0192256,3.0192256 0 0 1 3.019226,3.019225 z" /><path
     id="circle25"
     style="fill:#f9f4ef;stroke-width:1.32291667;stroke-linecap:round;stroke-linejoin:round;stroke-miterlimit:3.8637;stroke-dasharray:none;fill-opacity:1"
     d="m 53.592067,81.563011 a 3.0192256,3.0192256 0 0 1 -3.019225,3.019226 3.0192256,3.0192256 0 0 1 -3.019226,-3.019226 3.0192256,3.0192256 0 0 1 3.019226,-3.019225 3.0192256,3.0192256 0 0 1 3.019225,3.019225 z" /><path
     id="circle26"
     style="fill:#f4e9de;stroke-width:1.32291667;stroke-linecap:round;stroke-linejoin:round;stroke-miterlimit:3.8637;stroke-dasharray:none;fill-opacity:1"
     d="m 61.248271,22.500837 a 3.0192256,3.0192256 0 0 1 -3.019225,3.019226 3.0192256,3.0192256 0 0 1 -3.019226,-3.019226 3.0192256,3.0192256 0 0 1 3.019226,-3.019225 3.0192256,3.0192256 0 0 1 3.019225,3.019225 z" /><path
     id="circle27"
     style="fill:#f4e9de;stroke-width:1.32291667;stroke-linecap:round;stroke-linejoin:round;stroke-miterlimit:3.8637;stroke-dasharray:none;fill-opacity:1"
     d="m 45.388988,22.500837 a 3.0192256,3.0192256 0 0 1 -3.019226,3.019226 3.0192256,3.0192256 0 0 1 -3.019225,-3.019226 3.0192256,3.0192256 0 0 1 3.019225,-3.019225 3.0192256,3.0192256 0 0 1 3.019226,3.019225 z" /><path
     id="circle28"
     style="fill:#f3e8dd;stroke-width:1.32291667;stroke-linecap:round;stroke-linejoin:round;stroke-miterlimit:3.8637;stroke-dasharray:none;fill-opacity:1"
     d="m 38.279651,18.125862 a 3.0192256,3.0192256 0 0 1 -3.019225,3.019226 3.0192256,3.0192256 0 0 1 -3.019226,-3.019226 3.0192256,3.0192256 0 0 1 3.019226,-3.019225 3.0192256,3.0192256 0 0 1 3.019225,3.019225 z" /><path
     id="circle29"
     style="fill:#f3e8dd;stroke-width:1.32291667;stroke-linecap:round;stroke-linejoin:round;stroke-miterlimit:3.8637;stroke-dasharray:none;fill-opacity:1"
     d="m 68.90448,18.125862 a 3.0192256,3.0192256 0 0 1 -3.019226,3.019226 3.0192256,3.0192256 0 0 1 -3.019226,-3.019226 3.0192256,3.0192256 0 0 1 3.019226,-3.019225 3.0192256,3.0192256 0 0 1 3.019226,3.019225 z" /><path
     id="circle30"
     style="fill:#f3e8dd;stroke-width:1.32291667;stroke-linecap:round;stroke-linejoin:round;stroke-miterlimit:3.8637;stroke-dasharray:none;fill-opacity:1"
     d="m 78.474731,16.758682 a 3.0192256,3.0192256 0 0 1 -3.019226,3.019226 3.0192256,3.0192256 0 0 1 -3.019225,-3.019226 3.0192256,3.0192256 0 0 1 3.019225,-3.019225 3.0192256,3.0192256 0 0 1 3.019226,3.019225 z" /><path
     id="circle31"
     style="fill:#f3e8dd;stroke-width:1.32291667;stroke-linecap:round;stroke-linejoin:round;stroke-miterlimit:3.8637;stroke-dasharray:none;fill-opacity:1"
     d="m 29.529691,16.758682 a 3.0192256,3.0192256 0 0 1 -3.019225,3.019226 3.0192256,3.0192256 0 0 1 -3.019226,-3.019226 3.0192256,3.0192256 0 0 1 3.019226,-3.019225 3.0192256,3.0192256 0 0 1 3.019225,3.019225 z" /><path
     id="circle32"
     style="fill:#f4e8de;stroke-width:1.32291667;stroke-linecap:round;stroke-linejoin:round;stroke-miterlimit:3.8637;stroke-dasharray:none;fill-opacity:1"
     d="m 21.873485,20.86022 a 3.0192256,3.0192256 0 0 1 -3.019226,3.019226 3.0192256,3.0192256 0 0 1 -3.019225,-3.019226 3.0192256,3.0192256 0 0 1 3.019225,-3.019226 3.0192256,3.0192256 0 0 1 3.019226,3.019226 z" /><path
     id="circle33"
     style="fill:#f4e8de;stroke-width:1.32291667;stroke-linecap:round;stroke-linejoin:round;stroke-miterlimit:3.8637;stroke-dasharray:none;fill-opacity:1"
     d="m 85.857513,20.86022 a 3.0192256,3.0192256 0 0 1 -3.019226,3.019226 3.0192256,3.0192256 0 0 1 -3.019225,-3.019226 3.0192256,3.0192256 0 0 1 3.019225,-3.019226 3.0192256,3.0192256 0 0 1 3.019226,3.019226 z" /><path
     id="circle34"
     style="fill:#f4eae0;stroke-width:1.32291667;stroke-linecap:round;stroke-linejoin:round;stroke-miterlimit:3.8637;stroke-dasharray:none;fill-opacity:1"
     d="m 90.779357,28.280476 a 3.0192256,3.0192256 0 0 1 -3.019225,3.019225 3.0192256,3.0192256 0 0 1 -3.019226,-3.019225 3.0192256,3.0192256 0 0 1 3.019226,-3.019226 3.0192256,3.0192256 0 0 1 3.019225,3.019226 z" /><path
     id="circle35"
     style="fill:#f4eae0;stroke-width:1.32291667;stroke-linecap:round;stroke-linejoin:round;stroke-miterlimit:3.8637;stroke-dasharray:none;fill-opacity:1"
     d="m 15.857899,28.280476 a 3.0192256,3.0192256 0 0 1 -3.019225,3.019225 3.0192256,3.0192256 0 0 1 -3.019226,-3.019225 3.0192256,3.0192256 0 0 1 3.019226,-3.019226 3.0192256,3.0192256 0 0 1 3.019225,3.019226 z" /><path
     id="circle36"
     style="fill:#f5ece3;stroke-width:1.32291667;stroke-linecap:round;stroke-linejoin:round;stroke-miterlimit:3.8637;stroke-dasharray:none;fill-opacity:1"
     d="m 15.584464,37.813248 a 3.0192256,3.0192256 0 0 1 -3.019226,3.019225 3.0192256,3.0192256 0 0 1 -3.0192256,-3.019225 3.0192256,3.0192256 0 0 1 3.0192256,-3.019226 3.0192256,3.0192256 0 0 1 3.019226,3.019226 z" /><path
     id="circle37"
     style="fill:#f5ece3;stroke-width:1.32291667;stroke-linecap:round;stroke-linejoin:round;stroke-miterlimit:3.8637;stroke-dasharray:none;fill-opacity:1"
     d="m 91.052795,37.813248 a 3.0192256,3.0192256 0 0 1 -3.019226,3.019225 3.0192256,3.0192256 0 0 1 -3.019225,-3.019225 3.0192256,3.0192256 0 0 1 3.019225,-3.019226 3.0192256,3.0192256 0 0 1 3.019226,3.019226 z" /><path
     id="circle38"
     style="fill:#f6ede5;stroke-width:1.32291667;stroke-linecap:round;stroke-linejoin:round;stroke-miterlimit:3.8637;stroke-dasharray:none;fill-opacity:1"
     d="m 88.318428,46.289761 a 3.0192256,3.0192256 0 0 1 -3.019226,3.019225 3.0192256,3.0192256 0 0 1 -3.019226,-3.019225 3.0192256,3.0192256 0 0 1 3.019226,-3.019226 3.0192256,3.0192256 0 0 1 3.019226,3.019226 z" /><path
     id="circle39"
     style="fill:#f6ede5;stroke-width:1.32291667;stroke-linecap:round;stroke-linejoin:round;stroke-miterlimit:3.8637;stroke-dasharray:none;fill-opacity:1"
     d="m 18.318817,46.289761 a 3.0192256,3.0192256 0 0 1 -3.019226,3.019225 3.0192256,3.0192256 0 0 1 -3.019226,-3.019225 3.0192256,3.0192256 0 0 1 3.019226,-3.019226 3.0192256,3.0192256 0 0 1 3.019226,3.019226 z" /><path
     id="circle40"
     style="fill:#f7efe8;stroke-width:1.32291667;stroke-linecap:round;stroke-linejoin:round;stroke-miterlimit:3.8637;stroke-dasharray:none;fill-opacity:1"
     d="m 23.240665,55.586582 a 3.0192256,3.0192256 0 0 1 -3.019226,3.019226 3.0192256,3.0192256 0 0 1 -3.019225,-3.019226 3.0192256,3.0192256 0 0 1 3.019225,-3.019225 3.0192256,3.0192256 0 0 1 3.019226,3.019225 z" /><path
     id="circle41"
     style="fill:#f7efe8;stroke-width:1.32291667;stroke-linecap:round;stroke-linejoin:round;stroke-miterlimit:3.8637;stroke-dasharray:none;fill-opacity:1"
     d="m 83.94345,55.586582 a 3.0192256,3.0192256 0 0 1 -3.019225,3.019226 3.0192256,3.0192256 0 0 1 -3.019226,-3.019226 3.0192256,3.0192256 0 0 1 3.019226,-3.019225 3.0192256,3.0192256 0 0 1 3.019225,3.019225 z" /><path
     id="circle42"
     style="fill:#f8f0ea;stroke-width:1.32291667;stroke-linecap:round;stroke-linejoin:round;stroke-miterlimit:3.8637;stroke-dasharray:none;fill-opacity:1"
     d="m 78.201301,62.969357 a 3.0192256,3.0192256 0 0 1 -3.019225,3.019225 3.0192256,3.0192256 0 0 1 -3.019226,-3.019225 3.0192256,3.0192256 0 0 1 3.019226,-3.019226 3.0192256,3.0192256 0 0 1 3.019225,3.019226 z" /><path
     id="circle43"
     style="fill:#f8f0ea;stroke-width:1.32291667;stroke-linecap:round;stroke-linejoin:round;stroke-miterlimit:3.8637;stroke-dasharray:none;fill-opacity:1"
     d="m 28.982822,62.969357 a 3.0192256,3.0192256 0 0 1 -3.019226,3.019225 3.0192256,3.0192256 0 0 1 -3.019225,-3.019225 3.0192256,3.0192256 0 0 1 3.019225,-3.019226 3.0192256,3.0192256 0 0 1 3.019226,3.019226 z" /><path
     id="circle44"
     style="fill:#f8f2ec;stroke-width:1.32291667;stroke-linecap:round;stroke-linejoin:round;stroke-miterlimit:3.8637;stroke-dasharray:none;fill-opacity:1"
     d="m 36.092159,70.07869 a 3.0192256,3.0192256 0 0 1 -3.019226,3.019225 3.0192256,3.0192256 0 0 1 -3.019225,-3.019225 3.0192256,3.0192256 0 0 1 3.019225,-3.019226 3.0192256,3.0192256 0 0 1 3.019226,3.019226 z" /><path
     id="circle45"
     style="fill:#f8f2ec;stroke-width:1.32291667;stroke-linecap:round;stroke-linejoin:round;stroke-miterlimit:3.8637;stroke-dasharray:none;fill-opacity:1"
     d="m 70.818527,70.07869 a 3.0192256,3.0192256 0 0 1 -3.019226,3.019225 3.0192256,3.0192256 0 0 1 -3.019225,-3.019225 3.0192256,3.0192256 0 0 1 3.019225,-3.019226 3.0192256,3.0192256 0 0 1 3.019226,3.019226 z" /><path
     id="circle46"
     style="fill:#f9f3ee;stroke-width:1.32291667;stroke-linecap:round;stroke-linejoin:round;stroke-miterlimit:3.8637;stroke-dasharray:none;fill-opacity:1"
     d="m 63.162319,76.367714 a 3.0192256,3.0192256 0 0 1 -3.019226,3.019226 3.0192256,3.0192256 0 0 1 -3.019225,-3.019226 3.0192256,3.0192256 0 0 1 3.019225,-3.019226 3.0192256,3.0192256 0 0 1 3.019226,3.019226 z" /><path
     id="circle47"
     style="fill:#f9f3ee;stroke-width:1.32291667;stroke-linecap:round;stroke-linejoin:round;stroke-miterlimit:3.8637;stroke-dasharray:none;fill-opacity:1"
     d="m 44.021801,76.367714 a 3.0192256,3.0192256 0 0 1 -3.019226,3.019226 3.0192256,3.0192256 0 0 1 -3.019226,-3.019226 3.0192256,3.0192256 0 0 1 3.019226,-3.019226 3.0192256,3.0192256 0 0 1 3.019226,3.019226 z" /><path
     style="fill:url(#linearGradient2);fill-rule:evenodd;stroke-linecap:round;stroke-linejoin:round"
     d="m 58.103516,44.890625 c -0.17285,-0.02831 -0.349871,0.01313 -0.492188,0.115234 -2.241189,1.617499 -3.649716,4.249025 -3.638672,7.039063 0.01671,4.222085 3.426504,7.984889 7.777344,7.902344 3.622907,-0.06873 6.851219,-3.030925 6.701172,-6.789063 -0.120704,-3.023209 -2.641262,-5.719697 -5.808594,-5.494141 -2.422915,0.172544 -4.596547,2.26018 -4.279297,4.839844 0.112077,0.911335 0.571222,1.752807 1.257813,2.34375 0.68659,0.590943 1.644384,0.923935 2.642578,0.699219 0.6164,-0.138766 1.404039,-0.400578 1.544922,-1.035156 0.238241,-1.073105 -0.906952,-1.005045 -1.076172,-0.767576 -0.169219,0.237469 -0.503258,0.453973 -0.759766,0.511718 -0.563233,0.126797 -1.063409,-0.04279 -1.490234,-0.410156 -0.426825,-0.367365 -0.737257,-0.939723 -0.806641,-1.503906 -0.215352,-1.7511 1.334935,-3.236489 3.060547,-3.359375 2.362003,-0.168206 4.299904,1.907368 4.392578,4.228515 0.118468,2.967191 -2.487545,5.358726 -5.404297,5.414063 -3.569563,0.06772 -6.415783,-3.073307 -6.429687,-6.585938 -0.0093,-2.339242 1.189066,-4.589118 3.089844,-5.960937 0.295162,-0.213823 0.361563,-0.626209 0.148437,-0.921875 -0.102415,-0.141935 -0.256941,-0.23746 -0.429687,-0.265625 z"
     id="path47"
     transform="matrix(-0.42473001,-2.2438457,-2.2438457,0.42473001,193.50336,165.1476)"
     sodipodi:nodetypes="scssssssssssssssscccss" /></svg>
