<?xml version="1.0" encoding="UTF-8" standalone="no"?>
<svg
   height="100mm"
   viewBox="0 0 100 100"
   width="100mm"
   version="1.1"
   id="svg1"
   sodipodi:docname="item.star.stripe.v.svg"
   xml:space="preserve"
   inkscape:version="1.4 (e7c3feb1, 2024-10-09)"
   xmlns:inkscape="http://www.inkscape.org/namespaces/inkscape"
   xmlns:sodipodi="http://sodipodi.sourceforge.net/DTD/sodipodi-0.dtd"
   xmlns:xlink="http://www.w3.org/1999/xlink"
   xmlns="http://www.w3.org/2000/svg"
   xmlns:svg="http://www.w3.org/2000/svg"><defs
     id="defs1"><linearGradient
       id="linearGradient13"
       inkscape:collect="always"><stop
         style="stop-color:#f2e5d9;stop-opacity:1;"
         offset="0"
         id="stop13" /><stop
         style="stop-color:#fbf7f4;stop-opacity:1;"
         offset="1"
         id="stop14" /></linearGradient><linearGradient
       id="linearGradient11"
       inkscape:collect="always"><stop
         style="stop-color:#9d5a16;stop-opacity:1;"
         offset="0"
         id="stop11" /><stop
         style="stop-color:#9c5916;stop-opacity:1;"
         offset="1"
         id="stop12" /></linearGradient><linearGradient
       inkscape:collect="always"
       xlink:href="#linearGradient11"
       id="linearGradient12"
       x1="29.731493"
       y1="63.326885"
       x2="29.731493"
       y2="-33.999451"
       gradientUnits="userSpaceOnUse"
       gradientTransform="matrix(0.70702368,-0.01275175,0.01275175,0.70702368,27.040096,39.569547)" /><linearGradient
       inkscape:collect="always"
       xlink:href="#linearGradient13"
       id="linearGradient14"
       x1="-48.953373"
       y1="82.405128"
       x2="-48.953373"
       y2="18.029022"
       gradientUnits="userSpaceOnUse"
       gradientTransform="translate(97.337473,-0.87167886)" /></defs><sodipodi:namedview
     id="namedview1"
     pagecolor="#ffffff"
     bordercolor="#666666"
     borderopacity="1.0"
     inkscape:showpageshadow="2"
     inkscape:pageopacity="0.0"
     inkscape:pagecheckerboard="0"
     inkscape:deskcolor="#d1d1d1"
     inkscape:document-units="mm"
     showgrid="false"
     inkscape:zoom="1.21546"
     inkscape:cx="260.39523"
     inkscape:cy="208.56301"
     inkscape:window-width="1424"
     inkscape:window-height="770"
     inkscape:window-x="7"
     inkscape:window-y="25"
     inkscape:window-maximized="0"
     inkscape:current-layer="g1" /><g
     id="g1"
     transform="matrix(1.3072828,0,0,1.3072828,-12.902425,-14.566378)"><path
       id="path1"
       style="opacity:1;fill:url(#linearGradient12);fill-opacity:1;stroke-width:0.374194;stroke-linecap:round;stroke-linejoin:round;stroke-miterlimit:3.8637"
       inkscape:transform-center-x="-0.10402053"
       inkscape:transform-center-y="-3.3450645"
       d="M 68.970762,81.852626 C 64.773433,84.914255 50.498939,73.398809 48.212761,73.36238 45.926583,73.32595 29.582906,84.953633 26.572666,81.456907 23.562425,77.960181 28.585769,61.832058 27.724257,59.662274 26.862745,57.49249 12.038148,46.217251 13.847285,41.011636 c 1.809137,-5.205614 19.177096,-4.434318 21.441533,-6.087552 2.264437,-1.653235 7.61189,-18.318346 12.641631,-18.51328 5.02974,-0.194934 10.885229,16.95976 12.83467,18.626309 1.94944,1.666549 20.309417,-0.752746 21.683728,6.614811 1.37431,7.367557 -13.322673,14.998815 -14.309623,18.106295 -0.98695,3.107478 5.028867,19.032778 0.831538,22.094407 z"
       sodipodi:nodetypes="zzzzzzzzzzz" /><path
       style="fill:#4d99e5;fill-opacity:1;stroke-linecap:round;stroke-linejoin:round"
       d="m 61.614969,39.747779 c -2.66e-4,-1.117404 -0.906034,-0.808821 -2.023438,-0.809087 -1.117403,2.66e-4 -2.023171,-3.141802 -2.023437,-2.024398 v 37.630335 c -8.13e-4,1.118166 0.905271,1.215551 2.023437,1.215851 1.118167,-2.66e-4 2.024251,1.521477 2.023438,0.403311 z"
       id="path3"
       sodipodi:nodetypes="ccccccc" /><path
       style="fill:#4de54d;fill-opacity:1;stroke-linecap:round;stroke-linejoin:round"
       d="m 53.964578,28.73009 c -2.66e-4,-1.117404 -0.906034,-4.451874 -2.023438,-4.45214 -1.117403,2.67e-4 -2.023171,-2.737018 -2.023437,-1.619615 v 46.940359 c -8.13e-4,1.118166 0.905271,1.215557 2.023437,1.215824 1.118167,-2.66e-4 2.024251,2.735827 2.023438,1.617661 z"
       id="path4"
       sodipodi:nodetypes="ccccccc" /><path
       style="fill:#e54d66;fill-opacity:1;stroke-linecap:round;stroke-linejoin:round"
       d="m 46.31614,21.840802 c -2.66e-4,-1.117403 -0.906034,3.643799 -2.023437,3.643532 -1.118166,-8.13e-4 -2.025125,2.119618 -2.025391,3.237789 v 43.297306 c -8.13e-4,1.118929 0.906462,-0.807282 2.025391,-0.808095 1.118166,-2.67e-4 2.02425,-0.09766 2.023437,-1.215823 z"
       id="path5"
       sodipodi:nodetypes="ccccccc" /><path
       style="fill:#e5e54d;fill-opacity:1;stroke-linecap:round;stroke-linejoin:round"
       d="m 38.66575,36.443163 c -2.66e-4,-1.117404 -0.906034,1.215097 -2.023438,1.214831 -1.117403,2.67e-4 -2.023171,-0.308316 -2.023437,0.809087 V 76.5022 c -8.13e-4,1.118166 0.905271,-0.403577 2.023437,-0.403311 1.118167,-2.66e-4 2.024251,-0.502441 2.023438,-1.620607 z"
       id="path6"
       sodipodi:nodetypes="ccccccc" /><path
       style="fill:url(#linearGradient14);stroke-linecap:round;stroke-linejoin:round;stroke-miterlimit:3.8637"
       d="m 48.011719,19.234375 c -0.832307,-0.01919 -1.412517,0.448623 -1.925782,0.972656 -0.513264,0.524033 -0.992686,1.196234 -1.484375,1.988281 -0.983377,1.584096 -1.996447,3.644683 -2.982421,5.744141 -0.985974,2.099458 -1.940364,4.23628 -2.765625,5.917969 -0.412631,0.840844 -0.794231,1.568781 -1.117188,2.105469 -0.322957,0.536687 -0.649404,0.888323 -0.644531,0.884765 0.0045,-0.0033 -0.449678,0.210862 -1.082031,0.369141 -0.632354,0.158279 -1.472529,0.319628 -2.433594,0.478515 -1.922131,0.317776 -4.336719,0.631224 -6.722656,0.970704 -2.385938,0.339479 -4.739724,0.701851 -6.597657,1.138671 -0.928966,0.218411 -1.731767,0.451318 -2.390625,0.738282 -0.658857,0.286964 -1.287651,0.565482 -1.572265,1.390625 -0.290318,0.84168 0.05589,1.454092 0.416015,2.083984 0.360121,0.629893 0.871652,1.302716 1.496094,2.041016 1.248884,1.4766 2.951177,3.193217 4.697266,4.896484 1.746088,1.703267 3.53456,3.389423 4.921875,4.759766 0.693657,0.685171 1.286448,1.292228 1.714843,1.769531 0.428396,0.477303 0.696686,0.919042 0.666016,0.841797 -0.052,-0.130956 0.03947,0.312662 -0.0039,0.890625 -0.04338,0.577962 -0.147053,1.352601 -0.291016,2.24414 -0.287925,1.783079 -0.732283,4.040954 -1.148437,6.322266 -0.416155,2.281313 -0.80615,4.585843 -0.982422,6.519531 -0.08814,0.966845 -0.124123,1.839507 -0.07422,2.59961 0.0499,0.760103 0.138737,1.417423 0.572266,2.019531 0.269553,0.37437 0.690807,0.603672 1.078125,0.693359 0.387317,0.08969 0.760463,0.07642 1.140625,0.02344 0.760322,-0.105956 1.576581,-0.388829 2.49414,-0.779297 1.835119,-0.780935 4.040695,-2.014923 6.251953,-3.318359 2.211259,-1.303437 4.421575,-2.67572 6.189454,-3.708985 0.883939,-0.516632 1.659681,-0.949452 2.248046,-1.238281 0.588366,-0.288829 1.120267,-0.375341 0.896485,-0.378906 -0.175906,-0.0028 0.306941,0.09137 0.851562,0.367187 0.544622,0.275819 1.258783,0.685937 2.070313,1.177735 1.62306,0.983595 3.644214,2.291105 5.677734,3.542968 2.03352,1.251863 4.074195,2.448029 5.802735,3.236328 0.864269,0.39415 1.645297,0.691587 2.373046,0.832032 0.72775,0.140444 1.531787,0.176619 2.177735,-0.414063 0.581393,-0.53165 0.724043,-1.214709 0.796875,-1.929687 0.07283,-0.714978 0.03776,-1.523374 -0.05469,-2.423828 -0.184888,-1.800909 -0.614634,-3.965773 -1.078125,-6.148438 -0.46349,-2.182665 -0.961718,-4.379091 -1.283203,-6.175781 -0.160742,-0.898345 -0.276262,-1.697389 -0.324219,-2.324219 -0.04796,-0.62683 0.0016,-1.102076 0.03125,-1.195312 0.01587,-0.04997 0.272094,-0.496533 0.72461,-1.007813 0.452516,-0.51128 1.084324,-1.136284 1.824219,-1.824219 1.479789,-1.375869 3.392092,-3.010157 5.259765,-4.664062 1.867673,-1.653906 3.690718,-3.321576 5.03125,-4.828125 0.670266,-0.753275 1.222658,-1.461976 1.607422,-2.158203 0.384764,-0.696228 0.665541,-1.428881 0.4375,-2.246094 -0.230364,-0.825538 -0.890614,-1.302088 -1.591797,-1.640625 -0.701182,-0.338537 -1.537102,-0.572564 -2.492187,-0.767578 -1.910171,-0.390029 -4.294359,-0.601637 -6.695313,-0.765625 -2.400953,-0.163988 -4.814514,-0.277226 -6.708984,-0.439453 -0.947235,-0.08111 -1.766611,-0.175811 -2.363281,-0.28711 -0.596671,-0.111298 -0.994593,-0.336613 -0.875,-0.234375 0.01608,0.01375 -0.318906,-0.388396 -0.652344,-0.960937 -0.333438,-0.572541 -0.736531,-1.342933 -1.183594,-2.230469 -0.894126,-1.775071 -1.963796,-4.02572 -3.072266,-6.242187 C 53.758718,26.246423 52.615535,24.0662 51.535156,22.390625 50.994967,21.552838 50.474835,20.84206 49.941406,20.291016 49.407977,19.739971 48.861213,19.25396 48.011719,19.234375 Z m -0.04687,2.023437 c -0.135124,-0.0031 0.145237,0.05274 0.521484,0.441407 0.376247,0.388671 0.84842,1.014789 1.347656,1.789062 0.998474,1.548547 2.126604,3.687269 3.222657,5.878906 1.096052,2.191638 2.16259,4.438228 3.074218,6.248047 0.455815,0.90491 0.872726,1.70014 1.244141,2.337891 0.371415,0.637751 0.626628,1.091434 1.083984,1.482422 0.560867,0.479477 1.10418,0.551964 1.820313,0.685547 0.716132,0.133582 1.580353,0.230517 2.560547,0.314453 1.960387,0.167872 4.375112,0.277512 6.746093,0.439453 2.370982,0.161941 4.704125,0.378533 6.427735,0.730469 0.861805,0.175968 1.569812,0.392179 2.015625,0.607422 0.445813,0.215242 0.533604,0.397763 0.523437,0.361328 -0.0078,-0.02811 0.0031,0.246925 -0.259765,0.722656 -0.262909,0.475731 -0.7345,1.103877 -1.347657,1.792969 C 75.719,46.468027 73.933436,48.11223 72.083984,49.75 c -1.849451,1.63777 -3.764264,3.272147 -5.294922,4.695312 -0.765328,0.711583 -1.435032,1.368438 -1.96289,1.964844 -0.527858,0.596406 -0.931137,1.084842 -1.138672,1.738281 -0.193793,0.61017 -0.175798,1.220388 -0.119141,1.960938 0.05666,0.74055 0.182244,1.590032 0.34961,2.525391 0.334731,1.870717 0.835369,4.076113 1.294922,6.240234 0.459552,2.164121 0.876137,4.291505 1.044921,5.935547 0.08439,0.822021 0.10415,1.526159 0.05469,2.011719 -0.04946,0.48556 -0.203882,0.691326 -0.148438,0.640625 0.12,-0.109733 0.02329,0.0073 -0.429687,-0.08008 -0.452979,-0.08742 -1.132158,-0.328068 -1.916016,-0.685546 -1.567716,-0.714957 -3.57204,-1.882965 -5.580078,-3.119141 -2.008038,-1.236176 -4.026662,-2.539972 -5.691406,-3.548828 -0.832372,-0.504428 -1.575309,-0.934966 -2.205078,-1.253906 -0.629769,-0.318941 -1.03902,-0.572935 -1.732422,-0.583985 -0.741279,-0.01181 -1.150716,0.256274 -1.822266,0.585938 -0.671549,0.329664 -1.473481,0.778592 -2.376953,1.30664 -1.806944,1.056097 -4.011297,2.425513 -6.195312,3.712891 -2.184016,1.287378 -4.354397,2.494235 -6.015625,3.201172 -0.830614,0.353468 -1.541687,0.575299 -1.982422,0.636719 -0.172464,0.02403 -0.251824,0.0143 -0.316406,0.0078 -0.02869,-0.0709 -0.140995,-0.343202 -0.175782,-0.873047 -0.0386,-0.587957 -0.01213,-1.378847 0.07031,-2.283203 0.164879,-1.808712 0.544301,-4.077307 0.957031,-6.339844 0.41273,-2.262537 0.859015,-4.520591 1.15625,-6.361328 0.148618,-0.920368 0.259424,-1.734856 0.310547,-2.416015 0.05112,-0.68116 0.116148,-1.166957 -0.130859,-1.789063 -0.225681,-0.568395 -0.562626,-0.914259 -1.041016,-1.447266 -0.47839,-0.533006 -1.093259,-1.158554 -1.800781,-1.857421 -1.415046,-1.397735 -3.20012,-3.08238 -4.929688,-4.769532 C 22.586838,47.818707 20.911029,46.124679 19.75,44.751953 19.169486,44.06559 18.717173,43.455025 18.464844,43.013672 18.212514,42.572318 18.29796,42.32447 18.205078,42.59375 c -0.08718,0.252743 0.0059,0.0063 0.46875,-0.195313 0.462845,-0.201591 1.180742,-0.419868 2.044922,-0.623046 1.72836,-0.406357 4.050712,-0.76837 6.419922,-1.105469 2.369209,-0.337099 4.788276,-0.651289 6.767578,-0.978516 0.989651,-0.163613 1.868047,-0.330074 2.59375,-0.511719 0.725703,-0.181644 1.268041,-0.319726 1.785156,-0.697265 0.517449,-0.377782 0.810106,-0.852657 1.185547,-1.476563 0.375441,-0.623905 0.773514,-1.390325 1.199219,-2.257812 0.85141,-1.734974 1.806115,-3.872841 2.78125,-5.949219 0.975135,-2.076378 1.974052,-4.093282 2.86914,-5.535156 0.447545,-0.720937 0.874458,-1.297085 1.210938,-1.640625 0.33648,-0.34354 0.55153,-0.362516 0.433594,-0.365235 z"
       id="path2" /></g></svg>
