<?xml version="1.0" encoding="UTF-8" standalone="no"?>
<svg
   height="100mm"
   viewBox="0 0 100 100"
   width="100mm"
   version="1.1"
   id="svg1"
   sodipodi:docname="item.man.stripe.h.svg"
   xml:space="preserve"
   inkscape:version="1.4 (e7c3feb1, 2024-10-09)"
   xmlns:inkscape="http://www.inkscape.org/namespaces/inkscape"
   xmlns:sodipodi="http://sodipodi.sourceforge.net/DTD/sodipodi-0.dtd"
   xmlns:xlink="http://www.w3.org/1999/xlink"
   xmlns="http://www.w3.org/2000/svg"
   xmlns:svg="http://www.w3.org/2000/svg"><defs
     id="defs1"><linearGradient
       id="linearGradient23"
       inkscape:collect="always"><stop
         style="stop-color:#f2e5d9;stop-opacity:1;"
         offset="0"
         id="stop23" /><stop
         style="stop-color:#fbf7f4;stop-opacity:1;"
         offset="1"
         id="stop24" /></linearGradient><linearGradient
       id="linearGradient21"
       inkscape:collect="always"><stop
         style="stop-color:#9d5a16;stop-opacity:1;"
         offset="0"
         id="stop21" /><stop
         style="stop-color:#9c5916;stop-opacity:1;"
         offset="1"
         id="stop22" /></linearGradient><linearGradient
       inkscape:collect="always"
       xlink:href="#linearGradient21"
       id="linearGradient22"
       x1="48.820274"
       y1="18.437962"
       x2="48.820274"
       y2="83.000427"
       gradientUnits="userSpaceOnUse"
       gradientTransform="matrix(1.3132938,0,0,1.3132938,-14.098783,-16.20784)" /><linearGradient
       inkscape:collect="always"
       xlink:href="#linearGradient23"
       id="linearGradient24"
       x1="48.895866"
       y1="20.942305"
       x2="48.895866"
       y2="79.799011"
       gradientUnits="userSpaceOnUse"
       gradientTransform="matrix(1.3132938,0,0,1.3132938,-14.098783,-16.20784)" /></defs><sodipodi:namedview
     id="namedview1"
     pagecolor="#ffffff"
     bordercolor="#666666"
     borderopacity="1.0"
     inkscape:showpageshadow="2"
     inkscape:pageopacity="0.0"
     inkscape:pagecheckerboard="0"
     inkscape:deskcolor="#d1d1d1"
     inkscape:document-units="mm"
     showgrid="false"
     inkscape:zoom="1.4578542"
     inkscape:cx="188.63341"
     inkscape:cy="188.97638"
     inkscape:window-width="1424"
     inkscape:window-height="770"
     inkscape:window-x="7"
     inkscape:window-y="25"
     inkscape:window-maximized="0"
     inkscape:current-layer="g54" /><g
     id="g54"><path
       id="path12"
       style="fill:url(#linearGradient22);stroke-width:1.88571;stroke-linecap:round;stroke-linejoin:round;stroke-miterlimit:3.8637"
       d="M 50.016583,-5.486692e-7 C 38.300961,-3.8634189e-5 28.803564,9.497358 28.803601,21.21298 c 0.05271,3.919891 1.039631,7.521998 3.136443,10.834352 L 19.44144,32.273836 c -6.527775,2.4e-5 -10.847235,4.579151 -10.8472587,11.106926 2.37e-5,6.527777 4.2439807,11.928245 10.7717577,11.928268 0,0 8.810249,-0.141808 9.295918,1.095641 1.325895,3.378269 -11.546874,25.048507 -11.546874,25.048507 -3.431754,6.388979 -0.959637,13.293235 5.428796,16.726001 5.859756,2.903671 12.310764,1.716357 17.707516,-4.293567 0,0 9.132086,-14.614304 10.210517,-14.521691 1.078431,0.09261 9.320058,14.521691 9.320058,14.521691 4.792744,6.311928 12.149765,7.725738 18.538026,4.293567 6.388435,-3.432766 7.879038,-11.545038 4.447284,-17.934017 0,0 -13.029383,-19.77717 -10.922874,-23.47653 0.987947,-1.734992 8.671918,-1.459602 8.671918,-1.459602 6.75428,-0.679532 10.889571,-4.520231 10.889594,-11.048008 -2.3e-5,-6.527775 -4.135315,-11.760659 -10.66309,-11.760682 L 68.034203,31.771081 C 70.131014,28.458727 71.176849,25.132869 71.229564,21.21298 71.2296,9.4973594 61.732204,-3.7320896e-5 50.016583,-5.486692e-7 Z"
       sodipodi:nodetypes="ccccccsccczcccscccccc" /><path
       style="fill:url(#linearGradient24);stroke-linecap:round;stroke-linejoin:round;stroke-miterlimit:3.8637"
       d="M 49.630859,2.5117188 C 38.151022,2.5116808 30.221087,12.720478 31.679687,22.958984 c 0.225209,2.987638 1.63063,5.483558 2.710938,7.351563 0.542727,0.938451 1.006457,1.737759 1.208984,2.242187 0.07982,0.198808 0.08887,0.286161 0.09961,0.34961 -0.548185,0.556946 -0.638053,0.848194 -1.794922,1.158203 -1.364239,0.365578 -4.366992,0.618382 -10.664063,0.330078 a 1.3230489,1.3230489 0 0 0 -0.06055,-0.002 c -3.129161,1.1e-5 -5.974987,0.47969 -8.169921,1.9375 -2.194935,1.45781 -3.550769,3.981949 -3.550782,7.294922 1.2e-5,3.282337 1.204374,5.820992 3.298829,7.335937 2.073961,1.500122 4.820347,2.015252 7.921874,2.025391 1.770565,0.197619 3.727063,-0.05306 5.304688,0.07227 0.799266,0.06349 1.468497,0.220699 1.923828,0.464844 0.455331,0.244146 0.733428,0.518187 0.945313,1.115235 0.683428,1.925757 -0.279225,6.023019 -2.310547,10.529296 -2.0274,4.497577 -4.923648,9.436465 -7.371094,13.601563 -2.280275,3.687401 -3.369574,6.969792 -2.955078,9.941406 0.414495,2.971614 2.425823,5.386976 5.583984,7.083985 3.292105,1.768724 6.82601,1.566734 9.802735,0.115234 2.976724,-1.4515 5.467748,-4.075292 7.152343,-7.208984 l -0.06445,0.107421 c 0,0 2.269231,-3.394921 4.728516,-6.767578 1.229642,-1.686328 2.509191,-3.368678 3.548828,-4.58789 0.516444,-0.605649 0.976948,-1.094873 1.304687,-1.392578 0.302765,0.300712 0.718444,0.784928 1.183594,1.378906 0.93952,1.199728 2.084012,2.839911 3.177735,4.480469 2.187444,3.281115 4.183593,6.564453 4.183593,6.564453 l -0.03516,-0.06055 c 1.693458,3.150181 4.348336,5.919174 7.470703,7.539062 3.122367,1.619889 6.828851,2.044275 10.175781,0.246094 3.236617,-1.739165 5.194159,-4.570156 5.556641,-7.810547 0.362482,-3.240391 -0.782576,-6.7935 -3.25,-10.253906 l 0.07422,0.117187 c -2.161706,-3.822205 -5.127788,-8.56767 -7.189453,-13.03125 -2.061666,-4.463579 -3.022392,-8.57288 -1.990235,-10.84375 0.05018,-0.110399 0.276122,-0.359546 0.8125,-0.59375 0.536379,-0.234203 1.31294,-0.428143 2.152344,-0.554687 1.678809,-0.253089 3.602447,-0.258573 4.712891,-0.242188 a 1.3230489,1.3230489 0 0 0 0.01953,0 c 3.170009,-1.1e-5 5.891046,-0.651531 7.933594,-2.164062 2.042547,-1.512531 3.277342,-3.89295 3.507812,-6.826172 a 1.3230489,1.3230489 0 0 0 0.0039,-0.103516 c -1.1e-5,-3.353818 -1.533039,-5.908892 -3.849609,-7.380859 -2.308544,-1.466866 -5.267217,-1.98273 -8.394531,-1.986328 -2.480815,-0.220486 -5.348735,-0.09155 -7.658203,-0.236328 -1.168572,-0.07326 -2.187298,-0.224629 -2.855469,-0.457031 -0.668171,-0.232403 -0.878006,-0.456573 -0.958984,-0.669922 a 1.3230489,1.3230489 0 0 0 -0.07227,-0.15625 c -0.128479,-0.2394 -0.132175,-0.322138 0.04687,-0.777344 0.17905,-0.455206 0.606778,-1.130989 1.130859,-1.945313 1.046429,-1.625953 2.448883,-3.895917 2.539063,-6.998046 C 69.057153,17.153824 67.192672,11.917 63.75,8.25 60.301637,4.5769376 55.30782,2.5117007 49.630859,2.5117188 Z m 0,2.6445312 c 5.041658,-1.6e-5 9.270515,1.7951573 12.189453,4.904297 2.918939,3.109139 4.565885,7.567119 4.238282,13.103515 a 1.3230489,1.3230489 0 0 0 -0.002,0.04102 c -0.06524,2.360339 -1.096099,4.062729 -2.119141,5.652344 -0.511521,0.794807 -1.027364,1.539288 -1.369141,2.408203 -0.332236,0.844659 -0.415505,1.946246 0.06445,2.912109 0.460769,1.115192 1.467172,1.794212 2.513672,2.158203 1.07297,0.373199 2.277804,0.519196 3.560547,0.59961 2.565487,0.160828 5.47012,0.02849 7.669922,0.232422 a 1.3230489,1.3230489 0 0 0 0.121094,0.0059 c 2.832884,1e-5 5.339475,0.519292 7.005859,1.578125 1.653548,1.050677 2.598663,2.516906 2.613281,5.097656 -0.194786,2.310268 -1.023069,3.808499 -2.43164,4.851563 -1.42178,1.052845 -3.555172,1.644521 -6.357422,1.644531 h 0.01953 c -1.15403,-0.01703 -3.18686,-0.02394 -5.146484,0.271484 -0.979812,0.147712 -1.94494,0.365578 -2.816406,0.746094 -0.871467,0.380516 -1.719056,0.949056 -2.16211,1.923828 -1.685741,3.708834 -0.167901,8.359475 1.998047,13.048828 2.165948,4.689354 5.175557,9.491082 7.287109,13.22461 a 1.3230489,1.3230489 0 0 0 0.07422,0.115234 c 2.193589,3.07637 3.042575,6.017886 2.773438,8.423828 -0.269138,2.405943 -1.569573,4.37392 -4.177735,5.775391 -2.497686,1.341913 -5.146592,1.063675 -7.705078,-0.263672 -2.558486,-1.327346 -4.909369,-3.749683 -6.357422,-6.443359 a 1.3230489,1.3230489 0 0 0 -0.03516,-0.0625 c 0,0 -2.017009,-3.315605 -4.244141,-6.65625 -1.113565,-1.670323 -2.277411,-3.347165 -3.294921,-4.646485 -0.508756,-0.649659 -0.976628,-1.20241 -1.419922,-1.640625 -0.221647,-0.219107 -0.434158,-0.409607 -0.681641,-0.580078 -0.247483,-0.17047 -0.518038,-0.368213 -1.054687,-0.396484 -0.582695,-0.0307 -0.880826,0.17077 -1.146485,0.333984 -0.265659,0.163215 -0.493279,0.349885 -0.732422,0.566406 -0.478284,0.433044 -0.989777,0.98858 -1.550781,1.646485 -1.122007,1.315811 -2.423363,3.029256 -3.673828,4.74414 -2.50093,3.42977 -4.791016,6.859375 -4.791016,6.859375 a 1.3230489,1.3230489 0 0 0 -0.06445,0.107422 c -1.456917,2.710165 -3.624043,4.934 -5.982422,6.083985 -2.358378,1.149984 -4.836156,1.303011 -7.388672,-0.06836 -2.686613,-1.443627 -3.932475,-3.064819 -4.21875,-5.117187 -0.286274,-2.052368 0.481799,-4.781019 2.585938,-8.183594 a 1.3230489,1.3230489 0 0 0 0.01563,-0.02734 c 2.450307,-4.169937 5.397038,-9.174708 7.517578,-13.878906 2.12054,-4.704198 3.609732,-9.072266 2.392578,-12.501953 -0.417205,-1.1756 -1.246695,-2.057 -2.189453,-2.5625 -0.942758,-0.5055 -1.963782,-0.691963 -2.964844,-0.771484 -2.002123,-0.159044 -4.051348,0.0845 -5.271484,-0.06055 a 1.3230489,1.3230489 0 0 0 -0.15625,-0.0098 c -2.832886,-1e-5 -5.052583,-0.517348 -6.457031,-1.533203 -1.404449,-1.015855 -2.205068,-2.501484 -2.205078,-5.191406 9e-6,-2.659287 0.857721,-4.087957 2.36914,-5.091797 1.51142,-1.00384 3.863934,-1.494131 6.707031,-1.494141 l -0.06055,-0.002 c 6.397442,0.292899 9.529328,0.102266 11.470703,-0.417969 1.941375,-0.520235 2.667837,-1.60109 3.101562,-1.974609 a 1.3230489,1.3230489 0 0 0 0.136719,-0.136719 c 0.389764,-0.449933 0.556296,-1.069971 0.542969,-1.578125 -0.01333,-0.508154 -0.147991,-0.939908 -0.316407,-1.359375 -0.33683,-0.838933 -0.843731,-1.661439 -1.375,-2.580078 -1.062537,-1.837277 -2.207229,-3.988619 -2.36914,-6.253906 a 1.3230489,1.3230489 0 0 0 -0.01172,-0.09766 C 33.030287,13.945152 39.69548,5.1562172 49.630859,5.15625 Z"
       id="path22" /><path
       id="path3"
       style="fill:#4d99e5;fill-opacity:1;stroke-width:1.32292;stroke-linecap:round;stroke-linejoin:round;stroke-dasharray:none"
       d="M 36.297526 35.838123 C 35.858539 36.130711 35.333404 36.416022 34.58962 36.615336 C 32.654725 37.133835 29.529714 37.323655 23.17533 37.034949 C 20.334171 37.035456 17.983033 37.5261 16.47238 38.529431 C 15.371708 39.260464 14.623262 40.223485 14.294735 41.716317 L 85.819051 41.716317 C 85.421076 40.389943 84.632463 39.469224 83.503947 38.752157 C 81.837563 37.693324 79.331057 37.173968 76.498173 37.173958 A 1.3230489 1.3230489 0 0 1 76.376733 37.167757 C 74.176931 36.963825 71.272404 37.096558 68.706917 36.93573 C 67.424174 36.855316 66.219381 36.708966 65.146411 36.335767 C 64.792388 36.212631 64.452626 36.038053 64.127352 35.838123 L 36.297526 35.838123 z " /><path
       id="path4"
       style="fill:#4de54d;fill-opacity:1;stroke-width:1.32292;stroke-linecap:round;stroke-linejoin:round;stroke-dasharray:none"
       d="M 14.736051 46.950623 C 15.109894 47.72981 15.637984 48.327485 16.308565 48.812524 C 17.713013 49.828379 19.932649 50.345754 22.765535 50.345764 A 1.3230489 1.3230489 0 0 1 22.921598 50.355583 C 24.141734 50.500633 26.190988 50.257 28.193111 50.416044 C 29.194173 50.495565 30.215547 50.682073 31.158305 51.187573 C 31.833322 51.549513 32.443444 52.111449 32.892566 52.828817 L 67.502856 52.828817 C 67.975581 52.135095 68.665156 51.677546 69.384912 51.363273 C 70.256378 50.982757 71.221466 50.764777 72.201278 50.617065 C 74.152431 50.322918 76.171508 50.3289 77.328097 50.345764 C 80.130347 50.345754 82.263551 49.754265 83.685331 48.70142 C 84.327453 48.225921 84.842829 47.649111 85.238725 46.950623 L 14.736051 46.950623 z " /><path
       id="path5"
       style="fill:#e54d66;fill-opacity:1;stroke-width:1.32292;stroke-linecap:round;stroke-linejoin:round;stroke-dasharray:none"
       d="M 33.668746 58.060539 C 33.421217 59.89382 32.777252 61.874541 31.940169 63.941317 L 68.191703 63.941317 C 67.378642 61.919341 66.771477 59.935227 66.578882 58.060539 L 33.668746 58.060539 z " /><path
       id="path6"
       style="fill:#e5e54d;fill-opacity:1;stroke-width:1.32292;stroke-linecap:round;stroke-linejoin:round;stroke-dasharray:none"
       d="M 29.5429 69.172522 C 28.546089 71.154931 27.471268 73.126382 26.377718 75.051233 L 47.560404 75.051233 C 47.889082 74.690011 48.206783 74.35644 48.505566 74.085917 C 48.744709 73.869396 48.972679 73.682758 49.238338 73.519543 C 49.503997 73.356329 49.801826 73.155014 50.384521 73.185714 C 50.92117 73.213985 51.191754 73.411602 51.439237 73.582072 C 51.68672 73.752543 51.899203 73.943291 52.12085 74.162398 C 52.379019 74.41761 52.649456 74.721808 52.927519 75.051233 L 73.895231 75.051233 C 72.785908 73.145807 71.7021 71.225297 70.635482 69.172522 L 29.5429 69.172522 z " /></g></svg>
