<?xml version="1.0" encoding="UTF-8" standalone="no"?>
<svg
   height="100mm"
   viewBox="0 0 100 100"
   width="100mm"
   version="1.1"
   id="svg1"
   sodipodi:docname="item.elk.stripe.h.svg"
   xml:space="preserve"
   inkscape:version="1.4 (e7c3feb1, 2024-10-09)"
   xmlns:inkscape="http://www.inkscape.org/namespaces/inkscape"
   xmlns:sodipodi="http://sodipodi.sourceforge.net/DTD/sodipodi-0.dtd"
   xmlns:xlink="http://www.w3.org/1999/xlink"
   xmlns="http://www.w3.org/2000/svg"
   xmlns:svg="http://www.w3.org/2000/svg"><defs
     id="defs1"><linearGradient
       id="linearGradient2"
       inkscape:collect="always"><stop
         style="stop-color:#9d5a16;stop-opacity:1;"
         offset="0"
         id="stop2" /><stop
         style="stop-color:#9c5916;stop-opacity:1;"
         offset="1"
         id="stop3" /></linearGradient><linearGradient
       id="linearGradient29"
       inkscape:collect="always"><stop
         style="stop-color:#f2e5d9;stop-opacity:1;"
         offset="0"
         id="stop29" /><stop
         style="stop-color:#fbf7f4;stop-opacity:1;"
         offset="1"
         id="stop30" /></linearGradient><linearGradient
       inkscape:collect="always"
       xlink:href="#linearGradient29"
       id="linearGradient30"
       x1="54.76638"
       y1="15.936517"
       x2="54.76638"
       y2="81.20771"
       gradientUnits="userSpaceOnUse"
       gradientTransform="matrix(1.4720562,0,0,1.4720562,-30.412975,-21.876023)" /><linearGradient
       inkscape:collect="always"
       xlink:href="#linearGradient2"
       id="linearGradient3"
       x1="54.417938"
       y1="14.727495"
       x2="54.417938"
       y2="82.872559"
       gradientUnits="userSpaceOnUse"
       gradientTransform="matrix(1.4720562,0,0,1.4720562,-30.412975,-21.876023)" /></defs><sodipodi:namedview
     id="namedview1"
     pagecolor="#ffffff"
     bordercolor="#666666"
     borderopacity="1.0"
     inkscape:showpageshadow="2"
     inkscape:pageopacity="0.0"
     inkscape:pagecheckerboard="0"
     inkscape:deskcolor="#d1d1d1"
     inkscape:document-units="mm"
     showgrid="false"
     inkscape:zoom="1.4578542"
     inkscape:cx="188.63341"
     inkscape:cy="188.97638"
     inkscape:window-width="1424"
     inkscape:window-height="770"
     inkscape:window-x="7"
     inkscape:window-y="25"
     inkscape:window-maximized="0"
     inkscape:current-layer="svg1" /><path
     style="font-variation-settings:normal;fill:url(#linearGradient3);stroke:none;stroke-width:0.390095;stroke-linecap:butt;stroke-linejoin:miter;stroke-miterlimit:4;stroke-dasharray:none;stroke-dashoffset:0;stroke-opacity:1;stop-color:#000000"
     d="M 12.054569,0.62166363 C 2.8187511,3.5703836 9.4051957,15.046457 9.4051957,15.046457 c 0,0 -8.1266099,-1.623379 -9.10988747,3.388325 -1.92863803,9.830163 6.22066067,11.378467 6.22066067,11.378467 0,0 -2.1889932,1.161398 -2.1761333,5.052427 0.023141,6.999499 9.8794754,6.965937 19.5955324,6.706832 -3.00688,2.03075 -10.547278,0.890283 -9.605753,8.847405 0.856413,7.237805 8.459773,6.666482 9.605753,8.594618 3.218492,5.415184 -5.614062,23.039876 4.415618,32.612242 10.943994,10.444987 29.446126,11.208017 41.843667,1.766245 10.484778,-7.985038 3.786853,-27.793988 5.301977,-33.853522 0.929755,-3.718431 10.77676,-3.104651 10.111323,-10.360869 -0.45822,-4.996631 -4.126652,-6.198309 -9.004509,-7.73736 8.244427,-0.32356 17.748387,1.961419 18.616727,-6.441119 0.357109,-3.45559 -3.800988,-5.941164 -3.800988,-5.941164 0,0 10.991967,-2.337107 8.094272,-9.607004 -2.8977,-7.269897 -6.164698,-2.952642 -8.981087,-4.543228 C 93.279321,11.304595 95.007974,1.9523789 85.746715,0.36181332 77.521972,-1.050738 76.369324,11.239003 76.369324,11.239003 c 0,0 -2.699639,-8.1742678 -8.955284,-4.5505483 -6.663508,3.8599833 -2.652604,11.0267713 -2.652604,11.0267713 0,0 -2.764377,-2.644869 -6.074445,0.460762 -4.392005,4.120745 -0.235432,12.02775 -0.235432,12.02775 -5.621802,-1.904605 -10.462815,-1.420834 -17.077399,-0.01616 0,0 4.022655,-7.757178 0.746665,-11.394118 -2.629597,-2.919329 -6.691912,-0.851309 -6.691912,-0.851309 0,0 3.508515,-7.606865 -2.039962,-11.1566494 C 27.425273,2.9700806 23.29374,10.74274 23.29374,10.74274 c 0,0 0.233836,-13.7840615 -11.239171,-10.12107337 z"
     id="path14"
     sodipodi:nodetypes="scscscsssssscsczcscscsccscscs" /><path
     style="fill:url(#linearGradient30);stroke-linecap:round;stroke-linejoin:round"
     d="M 13.501953,2.1308594 C 11.241702,2.7326531 9.8193064,4.1985924 9.5175781,5.8769531 9.2158498,7.5553138 9.7453955,9.17701 10.314453,10.746094 c 0.569058,1.569083 1.235945,3.108165 1.53125,4.341797 0.295305,1.233631 0.235021,1.91672 -0.207031,2.398437 -0.134014,0.146039 -0.391927,0.250035 -1.064453,0.216797 C 9.9016924,17.669887 8.9831629,17.466061 8.0273438,17.28125 7.0715246,17.096439 6.0774925,16.90071 5.0097656,17.111328 c -1.0677268,0.210619 -2.1779805,1.169086 -2.46875,2.46875 -0.6431516,2.874721 0.115557,5.182323 1.6445313,6.591797 1.5289742,1.409474 3.5580156,2.009608 5.4785156,2.474609 1.9204995,0.465002 3.7942885,0.791755 4.8984375,1.242188 0.552074,0.225217 0.868519,0.469212 0.978516,0.617187 0.108282,0.14567 0.150652,0.21408 0.0625,0.623047 -0.03724,0.02134 -0.183851,0.08607 -0.462891,0.121094 -0.584054,0.07331 -1.58184,-1.79e-4 -2.621094,-0.08203 -1.039253,-0.08185 -2.119663,-0.186698 -3.1992185,0.06445 -0.5397778,0.125576 -1.1142688,0.362667 -1.578125,0.841797 -0.4638562,0.479129 -0.7274171,1.175139 -0.7558594,1.863281 -0.05201,1.258349 0.4043018,2.43516 1.2109375,3.214844 0.8066357,0.779684 1.8418784,1.189799 2.9570314,1.451172 2.230305,0.522744 4.930722,0.468584 7.626953,0.441406 2.696231,-0.02718 5.382262,-0.03454 7.269531,0.371094 0.943635,0.202816 1.665609,0.508384 2.109375,0.857421 0.443767,0.349038 0.663608,0.688727 0.748047,1.332032 0.04074,0.310399 0.0011,0.411445 -0.119141,0.585937 -0.120252,0.174493 -0.388535,0.412697 -0.826171,0.646485 -0.875272,0.467575 -2.345658,0.870446 -3.892579,1.267578 -1.54692,0.397131 -3.172526,0.792924 -4.552734,1.511718 -0.690104,0.359398 -1.33514,0.808382 -1.830078,1.453125 -0.494938,0.644744 -0.792878,1.506831 -0.757813,2.402344 0.06118,1.56242 0.831285,2.836012 1.830079,3.613281 0.998793,0.77727 2.151728,1.171073 3.242187,1.517579 1.090459,0.346505 2.135217,0.640895 2.898438,1.005859 0.76322,0.364964 1.17557,0.724132 1.382812,1.238281 1.665988,4.133164 0.968939,9.796872 0.451172,15.47461 -0.517767,5.677738 -0.855304,11.508071 2.576172,15.814453 9.282945,11.649769 29.340006,12.269161 40.294922,1.486328 4.943787,-4.86613 4.548244,-12.096007 3.919922,-18.570313 -0.314162,-3.237152 -0.697792,-6.346917 -0.632813,-8.941406 0.06498,-2.594489 0.573194,-4.570183 1.787109,-5.847656 0.11555,-0.121599 0.645191,-0.441481 1.388672,-0.71875 0.743481,-0.277269 1.679622,-0.554859 2.632813,-0.894531 0.953191,-0.339673 1.928549,-0.735814 2.796875,-1.339844 0.868326,-0.60403 1.661177,-1.486512 1.93164,-2.667969 0.216694,-0.946575 0.10246,-1.911439 -0.30664,-2.685547 -0.409101,-0.774108 -1.04552,-1.33476 -1.738281,-1.771484 -1.385523,-0.873448 -3.08473,-1.347097 -4.72461,-1.8125 -1.639879,-0.465403 -3.226325,-0.917608 -4.171875,-1.425781 -0.472775,-0.254087 -0.759677,-0.511261 -0.876953,-0.685547 -0.117275,-0.174287 -0.150891,-0.246908 -0.08984,-0.558594 0.23782,-1.214216 1.032836,-1.787861 2.705078,-2.238281 1.672243,-0.45042 4.032969,-0.537688 6.447266,-0.513672 2.414297,0.02402 4.877951,0.147694 6.955078,-0.01953 1.038564,-0.08361 1.984285,-0.230936 2.837891,-0.572266 0.853606,-0.34133 1.689832,-0.965709 2.042969,-1.931641 0.33017,-0.903112 0.477846,-1.71557 0.375,-2.498047 -0.102847,-0.782476 -0.522773,-1.504469 -1.074219,-1.955078 -1.102892,-0.901216 -2.408374,-0.972278 -3.626953,-1.035156 -1.218579,-0.06288 -2.425916,-0.04244 -3.150391,-0.158203 -0.268545,-0.04291 -0.350672,-0.08715 -0.431641,-0.121094 0.01888,-0.20899 0.0538,-0.389371 0.263672,-0.642578 0.251404,-0.303322 0.702291,-0.66011 1.308594,-1.007812 1.212607,-0.695405 2.997731,-1.342571 4.789063,-1.992188 1.791331,-0.649617 3.585818,-1.290199 4.99414,-2.220703 0.704161,-0.465252 1.337327,-1.014222 1.751953,-1.779297 0.414627,-0.765074 0.516934,-1.762092 0.222657,-2.666016 -0.480341,-1.475448 -1.428816,-2.519433 -2.541016,-2.943359 -1.1122,-0.423926 -2.197748,-0.307254 -3.146484,-0.158203 -0.948736,0.149051 -1.811345,0.349046 -2.416016,0.380859 -0.604671,0.03181 -0.773982,-0.02861 -0.943359,-0.21875 -0.448591,-0.503589 -0.553408,-1.283008 -0.345704,-2.542968 0.207705,-1.25996 0.733869,-2.810219 1.152344,-4.382813 C 90.109881,8.9137347 90.473802,7.2875115 90.017578,5.671875 89.561354,4.0562385 88.060853,2.7423073 85.808594,2.2773438 83.637257,1.8290866 81.779072,2.5800847 80.835937,3.9296875 79.892803,5.2792903 79.626512,6.9031739 79.341797,8.4902344 79.057081,10.077295 78.788847,11.645212 78.289062,12.75 c -0.499784,1.104788 -1.041242,1.713692 -2.296875,1.960938 -0.454975,0.08959 -0.421727,0.06144 -0.761718,-0.419922 C 74.890477,13.809654 74.52502,12.876837 74.154297,11.880859 73.783573,10.884882 73.422099,9.8190537 72.662109,8.9179688 72.282114,8.4674263 71.758221,8.0490497 71.091797,7.859375 70.425372,7.6697003 69.685045,7.7415278 68.996094,8.0039063 c -2.107406,0.802578 -3.156434,2.6954487 -3.228516,4.5234377 -0.07208,1.827988 0.498719,3.685234 1.064453,5.480468 0.565734,1.795235 1.143375,3.53417 1.273438,4.785157 0.06503,0.625493 0.01499,1.104915 -0.09766,1.408203 -0.112651,0.303288 -0.238436,0.47358 -0.615234,0.671875 -0.18146,0.09549 -0.202211,0.0794 -0.265625,0.06641 -0.06341,-0.01299 -0.206427,-0.07144 -0.410156,-0.25 -0.407457,-0.357125 -0.954169,-1.154603 -1.46875,-2.023437 -0.514581,-0.868835 -0.994568,-1.788737 -1.638672,-2.546875 -0.322052,-0.37907 -0.691792,-0.760441 -1.310547,-0.972657 -0.618755,-0.212215 -1.473018,-0.04487 -1.994141,0.361328 -0.684553,0.533589 -1.144877,1.287617 -1.318359,2.052735 -0.173482,0.765118 -0.10475,1.51344 0.05469,2.228515 0.318875,1.430151 1.011214,2.808369 1.609375,4.121094 0.598161,1.312726 1.085023,2.560452 1.152343,3.373047 0.06732,0.812596 0.04552,1.061382 -0.83789,1.521484 -0.477598,0.248744 -2.102226,0.204963 -4.216797,-0.185546 -2.114571,-0.390509 -4.694184,-0.962596 -7.414063,-0.970704 -2.609637,-0.0078 -4.811528,0.790156 -6.605468,1.207032 -1.793941,0.416876 -2.969562,0.517904 -4.232422,-0.386719 -0.226771,-0.162442 -0.284151,-0.266561 -0.337891,-0.457031 -0.05374,-0.190471 -0.06694,-0.499592 0.01172,-0.917969 0.157326,-0.836754 0.685376,-2.030463 1.296875,-3.251953 0.611499,-1.22149 1.293624,-2.471918 1.703125,-3.708985 0.204751,-0.618533 0.352488,-1.241711 0.318359,-1.919921 -0.03413,-0.678211 -0.320571,-1.447196 -0.896484,-1.970704 -0.570303,-0.518408 -1.27537,-0.878367 -2.027344,-0.882812 -0.751974,-0.0044 -1.394966,0.340089 -1.859375,0.734375 -0.928818,0.788572 -1.470779,1.836492 -2.027344,2.808594 -0.556564,0.972102 -1.1221,1.87437 -1.464843,2.189453 -0.171372,0.157541 -0.21872,0.140283 -0.164063,0.136719 0.05466,-0.0036 0.05605,0.05275 -0.167969,-0.138672 -0.506135,-0.432489 -0.660792,-1.108292 -0.505859,-2.392578 0.154933,-1.284287 0.670332,-2.947252 1.177734,-4.658204 0.507402,-1.710951 1.015778,-3.472416 1.035157,-5.193359 0.01938,-1.720943 -0.637617,-3.571526 -2.339844,-4.580078 -1.423161,-0.8432088 -3.067555,-0.7641368 -4.140625,-0.029297 -1.073071,0.7348399 -1.693061,1.8019379 -2.271485,2.8203129 -0.578423,1.018374 -1.098183,2.025138 -1.570312,2.630859 -0.472129,0.605721 -0.63373,0.68584 -0.912109,0.646484 -0.685264,-0.09688 -1.078428,-0.540276 -1.548829,-1.679687 C 21.334287,11.514886 20.996721,9.8667068 20.587891,8.21875 20.17906,6.5707932 19.725198,4.8954041 18.650391,3.5761719 17.575583,2.2569396 15.652712,1.5582182 13.501953,2.1308594 Z m 2.22461,2.4355468 c 0.353281,0.1025997 0.595021,0.3384357 0.873046,0.6796875 0.556051,0.6825038 1.032785,2.050814 1.419922,3.6113282 0.387138,1.5605141 0.711724,3.2851991 1.339844,4.8066411 0.62812,1.521441 1.769795,3.02706 3.623047,3.289062 1.449194,0.204878 2.641615,-0.705288 3.36914,-1.638672 0.727526,-0.933384 1.254324,-2.016587 1.785157,-2.951172 0.530832,-0.934584 1.083488,-1.682822 1.466797,-1.945312 0.383308,-0.26249 0.47706,-0.361528 1.294921,0.123047 0.855346,0.506783 1.056295,1.091951 1.042969,2.27539 -0.01333,1.18344 -0.428844,2.795039 -0.925781,4.470703 -0.496937,1.675665 -1.065179,3.414047 -1.267578,5.091797 -0.202399,1.67775 0.01188,3.524502 1.414062,4.722656 0.575805,0.492021 1.313954,0.816135 2.058594,0.767579 0.74464,-0.04856 1.342189,-0.422702 1.783203,-0.828125 0.882029,-0.810846 1.417448,-1.861309 1.96875,-2.824219 0.551303,-0.962911 1.123237,-1.833683 1.44336,-2.105469 0.160061,-0.135893 0.176676,-0.105209 0.132812,-0.105469 -0.04386,-2.59e-4 0.008,-0.03725 0.261719,0.19336 0.03123,0.02839 0.02672,-0.02106 0.03516,0.146484 0.0084,0.167546 -0.04176,0.516763 -0.1875,0.957031 -0.29148,0.880536 -0.924157,2.09206 -1.556641,3.355469 -0.632483,1.263409 -1.275817,2.578337 -1.533203,3.947266 -0.128693,0.684464 -0.160553,1.403653 0.04297,2.125 0.203522,0.721346 0.677106,1.411136 1.34375,1.888672 2.057035,1.473513 4.357328,1.280458 6.371094,0.8125 2.013765,-0.467959 3.954227,-1.144754 6,-1.138672 2.34561,0.007 4.761728,0.525201 6.941406,0.927734 2.179678,0.402533 4.147906,0.854548 5.919922,-0.06836 1.653658,-0.861263 2.376192,-2.588242 2.251953,-4.087891 C 64.315214,29.564804 63.674318,28.163769 63.058594,26.8125 62.44287,25.461231 61.83603,24.159356 61.625,23.212891 c -0.105515,-0.473233 -0.111086,-0.836851 -0.05859,-1.06836 0.01656,-0.07306 0.09083,-0.116219 0.115235,-0.173828 0.33014,0.421065 0.781378,1.184435 1.291015,2.044922 0.544236,0.918904 1.132476,1.901988 2.001953,2.664062 0.434739,0.381038 0.966271,0.717396 1.621094,0.851563 0.654823,0.134167 1.395924,0.01691 2.029297,-0.316406 0.890113,-0.468433 1.547879,-1.242652 1.863281,-2.091797 0.315403,-0.849145 0.338824,-1.730389 0.248047,-2.603516 -0.181554,-1.746254 -0.829492,-3.556995 -1.380859,-5.30664 -0.551368,-1.749646 -0.990596,-3.431694 -0.945313,-4.580078 0.04528,-1.148385 0.242963,-1.667111 1.527344,-2.15625 0.29167,-0.111079 0.380371,-0.0863 0.429687,-0.07227 0.04932,0.01404 0.126299,0.04856 0.271485,0.220703 0.290372,0.344281 0.671831,1.203586 1.035156,2.179688 0.363326,0.976101 0.722219,2.061809 1.394531,3.013671 0.672313,0.951863 2.005396,1.771845 3.435547,1.490235 2.098912,-0.413296 3.476457,-1.879697 4.195313,-3.46875 0.718856,-1.589054 0.97042,-3.333315 1.248047,-4.8808596 0.277626,-1.5475446 0.614125,-2.8804428 1.05664,-3.5136719 0.442516,-0.6332291 0.752305,-0.8913456 2.269531,-0.578125 1.658844,0.342457 1.995047,0.8073152 2.197266,1.5234375 0.202219,0.7161223 0.04777,1.9740881 -0.335937,3.4160156 -0.383704,1.4419274 -0.943973,3.0370654 -1.207032,4.6328124 -0.263059,1.595747 -0.22363,3.382648 0.980469,4.734375 0.841381,0.944538 2.075081,1.151356 3.058594,1.099609 0.983513,-0.05175 1.892262,-0.28522 2.6875,-0.410156 0.795238,-0.124935 1.427041,-0.121899 1.792969,0.01758 0.365928,0.139477 0.658444,0.335904 0.96875,1.289063 0.101046,0.31038 0.07544,0.385469 -0.0332,0.585937 -0.108642,0.200469 -0.396121,0.511129 -0.884765,0.833985 -0.977289,0.645712 -2.657458,1.296591 -4.435547,1.941406 -1.778089,0.644815 -3.656901,1.293793 -5.205078,2.181641 -0.774089,0.443923 -1.476052,0.949689 -2.029297,1.617187 -0.553245,0.667498 -0.939528,1.550367 -0.923828,2.501953 0.01246,0.755294 0.447767,1.534728 1.003906,1.933594 0.55614,0.398866 1.136013,0.537664 1.707031,0.628906 1.142037,0.182485 2.365453,0.132385 3.433594,0.1875 1.068141,0.05512 1.903888,0.291051 2.087891,0.441406 0.092,0.07518 0.100612,0.06445 0.125,0.25 0.02439,0.185549 -0.002,0.597759 -0.238282,1.244141 -0.03336,0.09124 -0.101226,0.209689 -0.539062,0.384766 -0.437836,0.175076 -1.170452,0.318336 -2.068359,0.390625 -1.795816,0.144577 -4.235611,0.03833 -6.714844,0.01367 -2.479233,-0.02466 -5.001559,0.02104 -7.164063,0.603515 -2.162503,0.582473 -4.152558,1.942859 -4.611328,4.285156 -0.177177,0.904596 0.02171,1.848634 0.490235,2.544922 0.468525,0.696289 1.119555,1.161547 1.818359,1.53711 1.397608,0.751126 3.086218,1.181741 4.703125,1.640625 1.616907,0.458883 3.156243,0.951783 4.035156,1.505859 0.439457,0.277038 0.692888,0.546895 0.810547,0.769531 0.117659,0.222636 0.16666,0.421443 0.06641,0.859375 -0.09077,0.396502 -0.332107,0.717798 -0.861328,1.085938 -0.529221,0.36814 -1.313411,0.712223 -2.175781,1.019531 -0.86237,0.307308 -1.796176,0.583082 -2.667969,0.908203 -0.871793,0.325121 -1.701675,0.6582 -2.382812,1.375 -1.880614,1.979079 -2.441066,4.704489 -2.513672,7.603516 -0.07261,2.899027 0.335149,6.073812 0.644531,9.261719 0.618764,6.375813 0.796936,12.554009 -3.142578,16.43164 -9.745395,9.592315 -28.243545,8.947836 -36.371094,-1.251953 -2.626721,-3.296443 -2.519817,-8.330695 -2.009765,-13.923828 0.510051,-5.593133 1.42351,-11.606422 -0.63086,-16.703125 -0.527553,-1.308812 -1.616314,-2.119819 -2.697265,-2.636719 -1.080952,-0.516899 -2.221372,-0.81749 -3.238282,-1.140625 -1.016909,-0.323134 -1.892376,-0.674964 -2.417968,-1.083984 -0.525592,-0.40902 -0.776505,-0.759511 -0.810547,-1.628906 -0.01253,-0.320072 0.04763,-0.472216 0.21289,-0.6875 0.165264,-0.215285 0.48133,-0.473045 0.953125,-0.71875 0.943591,-0.491411 2.44122,-0.897755 3.988282,-1.294922 1.547061,-0.397168 3.142341,-0.780216 4.482421,-1.496094 0.670041,-0.357939 1.297246,-0.813044 1.75586,-1.478516 0.458614,-0.665471 0.679755,-1.553206 0.564453,-2.43164 -0.166537,-1.268773 -0.828396,-2.354241 -1.736328,-3.06836 -0.907932,-0.714118 -2.006953,-1.109125 -3.189453,-1.363281 -2.365,-0.508312 -5.153541,-0.458817 -7.84961,-0.431641 -2.696068,0.02718 -5.306308,0.02542 -6.998046,-0.371093 C 10.911943,35.829087 10.334503,35.537457 10.037109,35.25 9.7397162,34.962543 9.6016667,34.705917 9.6289063,34.046875 c 0.00782,-0.189164 0.020555,-0.139922 0.013672,-0.132813 -0.00688,0.0071 0.055194,-0.05183 0.2773438,-0.103515 0.4442991,-0.103363 1.3827081,-0.08344 2.3925781,-0.0039 1.00987,0.07954 2.093928,0.201948 3.158203,0.06836 0.532138,-0.06679 1.081803,-0.197212 1.605469,-0.541016 0.523665,-0.343803 0.965862,-0.95576 1.113281,-1.625 0.218673,-0.992714 0.02458,-2.041385 -0.525391,-2.78125 C 17.114092,28.18787 16.355845,27.763095 15.5625,27.439453 13.97581,26.792169 12.07406,26.507357 10.285156,26.074219 8.496252,25.64108 6.879846,25.057448 5.9785156,24.226562 5.0771853,23.395677 4.6197391,22.405905 5.1230469,20.15625 c 0.1160362,-0.518652 0.057082,-0.381883 0.3984375,-0.449219 0.3413551,-0.06733 1.1151356,0.0024 2.0019531,0.173828 0.8868175,0.17147 1.8849786,0.413694 2.9199215,0.464844 1.034944,0.05115 2.274965,-0.12272 3.144532,-1.070312 1.250683,-1.362907 1.21148,-3.211385 0.830078,-4.804688 C 14.036567,12.8774 13.329233,11.295485 12.802734,9.84375 12.276235,8.3920148 11.98859,7.0936195 12.123047,6.3457031 12.257504,5.5977868 12.525326,5.1290151 14.183594,4.6875 14.90981,4.4941444 15.373281,4.4638066 15.726563,4.5664062 Z"
     id="path28" /><path
     id="path3"
     style="fill:#4d99e5;fill-opacity:1;stroke-width:1.32292;stroke-linecap:round;stroke-linejoin:round;stroke-dasharray:none"
     d="M 31.482316 42.433069 C 31.390025 42.893845 31.218252 43.328277 30.966585 43.693457 C 30.507971 44.358929 29.881178 44.813981 29.211137 45.17192 C 27.871057 45.887798 26.275784 46.270784 24.728723 46.667952 C 23.181661 47.065119 21.683927 47.471553 20.740336 47.962964 C 20.518635 48.078423 20.337735 48.196138 20.184298 48.311263 L 79.757406 48.311263 C 78.85676 47.803548 77.441862 47.345013 75.937484 46.918066 C 74.320577 46.459182 72.63202 46.028466 71.234412 45.27734 C 70.535608 44.901777 69.884443 44.436772 69.415918 43.740483 C 69.161935 43.363032 68.995797 42.910379 68.91724 42.433069 L 31.482316 42.433069 z " /><path
     id="path4"
     style="fill:#4de54d;fill-opacity:1;stroke-width:1.32292;stroke-linecap:round;stroke-linejoin:round;stroke-dasharray:none"
     d="M 26.622664 53.545569 C 27.494969 54.061569 28.30625 54.787251 28.738298 55.859123 C 29.19992 57.004365 29.494656 58.201128 29.694828 59.423763 L 70.489237 59.423763 C 70.802961 57.534195 71.463474 55.808117 72.761967 54.441638 C 73.141275 54.04247 73.572342 53.771637 74.025456 53.545569 L 26.622664 53.545569 z " /><path
     id="path5"
     style="fill:#e54d66;fill-opacity:1;stroke-width:1.32292;stroke-linecap:round;stroke-linejoin:round;stroke-dasharray:none"
     d="M 29.991451 64.655485 C 29.936192 66.614863 29.754609 68.584225 29.562537 70.536263 L 70.817383 70.536263 C 70.615936 68.541511 70.400055 66.5586 70.300618 64.655485 L 29.991451 64.655485 z " /><path
     id="path6"
     style="fill:#e5e54d;fill-opacity:1;stroke-width:1.32292;stroke-linecap:round;stroke-linejoin:round;stroke-dasharray:none"
     d="M 29.142924 75.767468 C 29.039004 77.875848 29.075719 79.858094 29.385286 81.646179 L 70.804464 81.646179 C 71.1699 79.813498 71.272568 77.83616 71.203923 75.767468 L 29.142924 75.767468 z " /></svg>
