<?xml version="1.0" encoding="UTF-8" standalone="no"?>
<svg
   height="100mm"
   viewBox="0 0 100 100"
   width="100mm"
   version="1.1"
   id="svg1"
   sodipodi:docname="item.heart.stripe.v.svg"
   xml:space="preserve"
   inkscape:version="1.4 (e7c3feb1, 2024-10-09)"
   xmlns:inkscape="http://www.inkscape.org/namespaces/inkscape"
   xmlns:sodipodi="http://sodipodi.sourceforge.net/DTD/sodipodi-0.dtd"
   xmlns:xlink="http://www.w3.org/1999/xlink"
   xmlns="http://www.w3.org/2000/svg"
   xmlns:svg="http://www.w3.org/2000/svg"><defs
     id="defs1"><linearGradient
       id="linearGradient19"
       inkscape:collect="always"><stop
         style="stop-color:#f2e5d9;stop-opacity:1;"
         offset="0"
         id="stop19" /><stop
         style="stop-color:#fbf7f4;stop-opacity:1;"
         offset="1"
         id="stop20" /></linearGradient><linearGradient
       id="linearGradient17"
       inkscape:collect="always"><stop
         style="stop-color:#9d5a16;stop-opacity:1;"
         offset="0"
         id="stop17" /><stop
         style="stop-color:#9c5916;stop-opacity:1;"
         offset="1"
         id="stop18" /></linearGradient><linearGradient
       inkscape:collect="always"
       xlink:href="#linearGradient17"
       id="linearGradient18"
       x1="49.243752"
       y1="18.683475"
       x2="49.243752"
       y2="85.5345"
       gradientUnits="userSpaceOnUse"
       gradientTransform="matrix(1.5096128,0,0,1.5096128,-24.161384,-28.381332)" /><linearGradient
       inkscape:collect="always"
       xlink:href="#linearGradient19"
       id="linearGradient20"
       x1="49.369003"
       y1="20.337389"
       x2="49.369003"
       y2="82.964615"
       gradientUnits="userSpaceOnUse"
       gradientTransform="matrix(1.5096128,0,0,1.5096128,-24.161384,-28.381332)" /></defs><sodipodi:namedview
     id="namedview1"
     pagecolor="#ffffff"
     bordercolor="#666666"
     borderopacity="1.0"
     inkscape:showpageshadow="2"
     inkscape:pageopacity="0.0"
     inkscape:pagecheckerboard="0"
     inkscape:deskcolor="#d1d1d1"
     inkscape:document-units="mm"
     showgrid="false"
     inkscape:zoom="1.4578542"
     inkscape:cx="188.63341"
     inkscape:cy="188.97638"
     inkscape:window-width="1424"
     inkscape:window-height="770"
     inkscape:window-x="7"
     inkscape:window-y="25"
     inkscape:window-maximized="0"
     inkscape:current-layer="svg1" /><path
     style="font-variation-settings:normal;vector-effect:none;fill:url(#linearGradient18);fill-opacity:1;stroke:none;stroke-width:0.399418px;stroke-linecap:butt;stroke-linejoin:miter;stroke-miterlimit:4;stroke-dasharray:none;stroke-dashoffset:0;stroke-opacity:1;stop-color:#000000"
     d="M 49.820331,13.306775 C 46.247407,13.19535 31.389653,-4.8602044 9.8673355,13.274575 6.5172632,16.097358 3.6373326,20.627577 1.2148675,26.536191 -3.2443611,37.41266 5.0349819,58.226323 18.483599,71.91802 c 7.400073,7.533829 23.76694,22.940729 31.336732,23.003498 7.569792,0.06277 24.67816,-14.960877 30.568932,-20.917382 C 91.927076,62.33758 104.27828,42.860062 98.554314,26.517798 97.084678,22.321899 94.073359,14.628098 89.42762,10.837865 71.876339,-3.4813694 53.579776,13.424021 49.820331,13.306775 Z"
     id="path11"
     sodipodi:nodetypes="sssszssss" /><path
     style="fill:url(#linearGradient20)"
     d="m 69.953125,8.0214844 c -5.48443,0.3771818 -9.686199,2.2555546 -12.792969,4.2636716 -2.07118,1.338745 -3.67349,2.730477 -4.859375,3.738281 -0.592942,0.503903 -1.085376,0.911219 -1.43164,1.148438 -0.346264,0.237219 -0.543677,0.218865 -0.296875,0.226562 0.182943,0.0057 -0.146932,-0.04747 -0.591797,-0.318359 -0.444865,-0.270891 -1.04614,-0.698264 -1.753907,-1.21289 C 46.811029,14.837935 44.953917,13.45786 42.708984,12.158203 38.21912,9.5588885 32.091217,7.2693976 24.763672,8.7539063 18.085783,10.1068 8.623141,15.014854 4.375,27.869141 0.35453311,40.03452 7.8216252,56.501043 20.740234,69.980469 c 6.423184,6.702024 12.812144,11.95133 18.074219,15.552734 2.631038,1.800702 4.978552,3.188168 6.931641,4.146484 1.953089,0.958317 3.425703,1.529282 4.763672,1.550782 0.826462,0.01328 1.545747,-0.246843 2.435546,-0.619141 0.8898,-0.372298 1.905468,-0.892338 3.033204,-1.535156 2.255472,-1.285637 4.952405,-3.063309 7.761718,-5.095703 C 69.35886,79.91568 75.396882,74.8646 79.072266,70.671875 82.611156,66.634856 88.307163,60.261593 92.429687,52.634766 96.552212,45.007938 99.136249,36.009877 96.175781,26.914062 91.969307,13.989986 81.728978,8.9093517 75.871094,8.1953125 73.750851,7.9368689 71.781268,7.8957571 69.953125,8.0214844 Z M 70.125,10.650391 c 1.661798,-0.109702 3.464979,-0.06713 5.425781,0.171875 4.696608,0.572486 14.234522,5.004961 18.109375,16.910156 2.661256,8.176507 0.371377,16.371982 -3.558594,23.642578 -3.92997,7.270596 -9.465691,13.498662 -13.019531,17.552734 -3.417346,3.898366 -9.391284,8.930251 -14.892578,12.910157 -2.750647,1.989952 -5.390244,3.724628 -7.521484,4.939453 -1.065621,0.607412 -2.006402,1.083903 -2.744141,1.392578 -0.737739,0.308675 -1.317505,0.414923 -1.371094,0.414062 -0.422133,-0.0068 -1.844,-0.397752 -3.640625,-1.279297 C 45.115485,86.423143 42.856876,85.093673 40.308594,83.349609 35.212029,79.861482 28.944244,74.717471 22.650391,68.150391 10.134928,55.091613 3.4137604,39.207913 6.8867187,28.699219 10.83413,16.754899 19.330069,12.552953 25.289062,11.345703 c 6.533397,-1.32362 11.916305,0.683117 16.09375,3.101563 2.088723,1.209223 3.853459,2.518121 5.28711,3.560546 0.716825,0.521213 1.348242,0.975594 1.933594,1.332032 0.585351,0.356437 1.083439,0.678073 1.886718,0.703125 0.83226,0.02596 1.351059,-0.329895 1.873047,-0.6875 0.521988,-0.357605 1.050197,-0.804682 1.652344,-1.316407 1.204294,-1.023448 2.689463,-2.311169 4.580078,-3.533203 2.835922,-1.833049 6.543902,-3.526364 11.529297,-3.855468 z"
     id="path18" /><path
     id="path3"
     style="fill:#4d99e5;fill-opacity:1;stroke-width:1.32292;stroke-linecap:round;stroke-linejoin:round;stroke-dasharray:none"
     d="M 69.606604 10.703739 C 67.406573 10.89486 65.454929 11.343941 63.72841 11.95741 L 63.72841 80.675179 C 65.718482 79.188539 67.705838 77.622814 69.606604 76.018616 L 69.606604 10.703739 z " /><path
     id="path4"
     style="fill:#4de54d;fill-opacity:1;stroke-width:1.32292;stroke-linecap:round;stroke-linejoin:round;stroke-dasharray:none"
     d="M 58.494104 14.575854 C 56.654266 15.777091 55.197334 17.035124 54.015824 18.039209 C 53.509241 18.469721 53.058152 18.840504 52.61591 19.164722 L 52.61591 87.846318 C 53.226286 87.557974 53.897532 87.216294 54.667981 86.777132 C 55.813023 86.124449 57.1172 85.304548 58.494104 84.392782 L 58.494104 14.575854 z " /><path
     id="path5"
     style="fill:#e54d66;fill-opacity:1;stroke-width:1.32292;stroke-linecap:round;stroke-linejoin:round;stroke-dasharray:none"
     d="M 41.50341 14.520561 L 41.50341 84.142151 C 43.559099 85.492446 45.404687 86.565226 46.911865 87.304749 C 47.079242 87.386875 47.223822 87.443959 47.384188 87.517655 L 47.384188 18.499646 C 47.140775 18.326955 46.934748 18.200174 46.67002 18.007686 C 45.265016 16.986091 43.537703 15.709381 41.50341 14.520561 z " /><path
     id="path6"
     style="fill:#e5e54d;fill-opacity:1;stroke-width:1.32292;stroke-linecap:round;stroke-linejoin:round;stroke-dasharray:none"
     d="M 30.393494 10.965739 L 30.393494 75.56593 C 32.421195 77.349938 34.398406 78.979614 36.271688 80.41628 L 36.271688 12.089701 C 34.464715 11.475934 32.500403 11.066871 30.393494 10.965739 z " /></svg>
