<?xml version="1.0" encoding="UTF-8" standalone="no"?>
<svg
   height="100mm"
   viewBox="0 0 100 100"
   width="100mm"
   version="1.1"
   id="svg1"
   sodipodi:docname="item.snowflake.svg"
   xml:space="preserve"
   inkscape:version="1.4 (e7c3feb1, 2024-10-09)"
   xmlns:inkscape="http://www.inkscape.org/namespaces/inkscape"
   xmlns:sodipodi="http://sodipodi.sourceforge.net/DTD/sodipodi-0.dtd"
   xmlns:xlink="http://www.w3.org/1999/xlink"
   xmlns="http://www.w3.org/2000/svg"
   xmlns:svg="http://www.w3.org/2000/svg"><defs
     id="defs1"><linearGradient
       id="linearGradient1"
       inkscape:collect="always"><stop
         style="stop-color:#f2e5d9;stop-opacity:1;"
         offset="0"
         id="stop1" /><stop
         style="stop-color:#fbf7f4;stop-opacity:1;"
         offset="1"
         id="stop2" /></linearGradient><linearGradient
       id="linearGradient25"
       inkscape:collect="always"><stop
         style="stop-color:#9d5a16;stop-opacity:1;"
         offset="0"
         id="stop25" /><stop
         style="stop-color:#9c5916;stop-opacity:1;"
         offset="1"
         id="stop26" /></linearGradient><linearGradient
       inkscape:collect="always"
       xlink:href="#linearGradient25"
       id="linearGradient26"
       x1="49.095547"
       y1="16.879429"
       x2="49.095547"
       y2="81.674667"
       gradientUnits="userSpaceOnUse"
       gradientTransform="matrix(1.5433234,0,0,1.5433234,-25.770306,-26.050418)" /><linearGradient
       inkscape:collect="always"
       xlink:href="#linearGradient1"
       id="linearGradient2"
       x1="50"
       y1="4.3574219"
       x2="50"
       y2="95.642578"
       gradientUnits="userSpaceOnUse" /></defs><sodipodi:namedview
     id="namedview1"
     pagecolor="#ffffff"
     bordercolor="#666666"
     borderopacity="1.0"
     inkscape:showpageshadow="2"
     inkscape:pageopacity="0.0"
     inkscape:pagecheckerboard="0"
     inkscape:deskcolor="#d1d1d1"
     inkscape:document-units="mm"
     showgrid="false"
     inkscape:zoom="1.4578542"
     inkscape:cx="188.6334"
     inkscape:cy="188.97637"
     inkscape:window-width="1424"
     inkscape:window-height="770"
     inkscape:window-x="7"
     inkscape:window-y="25"
     inkscape:window-maximized="0"
     inkscape:current-layer="svg1" /><circle
     style="fill:url(#linearGradient26);stroke:none;stroke-width:3.08665;stroke-linejoin:round;stroke-miterlimit:3.8637;stroke-dasharray:none"
     id="path13"
     cx="50"
     cy="50"
     r="50" /><path
     style="fill:url(#linearGradient2);stroke-linejoin:round;stroke-miterlimit:3.8637"
     d="M 50,4.3574219 C 24.807937,4.3574219 4.3574219,24.807937 4.3574219,50 4.3574219,75.192063 24.807937,95.642578 50,95.642578 75.192063,95.642578 95.642578,75.192063 95.642578,50 95.642578,24.807937 75.192063,4.3574219 50,4.3574219 Z m 0,2.6464843 C 73.762149,7.0039063 92.996094,26.237851 92.996094,50 92.996094,73.762149 73.762149,92.996094 50,92.996094 26.237851,92.996094 7.0039063,73.762149 7.0039062,50 7.0039063,26.237851 26.237851,7.0039062 50,7.0039062 Z"
     id="circle51" /><path
     id="path55"
     style="fill:#4d99e5;stroke-linecap:round;stroke-linejoin:round;fill-opacity:1"
     d="m 49.50003,18.562628 a 1.3229166,1.3229166 0 0 0 -1.290877,1.355473 l 0.170015,6.842993 -3.763594,-3.257165 a 1.322915,1.322915 0 0 0 -1.86707,0.134875 1.322915,1.322915 0 0 0 0.134359,1.865003 l 5.585189,4.834847 0.414961,16.678568 -12.671578,-11.576037 0.261483,-6.521566 a 1.3229166,1.3229166 0 0 0 -1.26969,-1.374593 1.3229166,1.3229166 0 0 0 -1.37511,1.267623 l -0.172599,4.293794 -5.467883,-4.995044 a 1.3229166,1.3229166 0 0 0 -0.950847,-0.345715 1.3229166,1.3229166 0 0 0 -0.91829,0.429431 1.3229166,1.3229166 0 0 0 0.08578,1.869137 l 5.411556,4.943884 -4.805908,0.33538 a 1.3229166,1.3229166 0 0 0 -1.228349,1.412317 1.3229166,1.3229166 0 0 0 1.4118,1.226282 l 7.319967,-0.510047 11.656653,10.648963 -15.949414,0.02119 -4.994011,-4.882389 a 1.3229166,1.3229166 0 0 0 -0.939477,-0.377238 1.3229166,1.3229166 0 0 0 -0.93121,0.396875 1.3229166,1.3229166 0 0 0 0.02119,1.870687 l 3.064412,2.996716 -7.035229,0.0093 a 1.3229166,1.3229166 0 0 0 -1.320333,1.324467 1.3229166,1.3229166 0 0 0 1.324467,1.321883 l 7.488948,-0.0098 -3.389457,3.677812 a 1.3229166,1.3229166 0 0 0 0.07648,1.871204 1.3229166,1.3229166 0 0 0 1.869137,-0.07596 l 5.047754,-5.477702 17.080094,-0.02274 -10.968839,11.9078 -8.391736,0.03566 a 1.3229166,1.3229166 0 0 0 -1.316199,1.330151 1.3229166,1.3229166 0 0 0 1.328084,1.316716 l 5.933488,-0.02687 -5.261694,5.712313 a 1.3229166,1.3229166 0 0 0 0.07596,1.869136 1.3229166,1.3229166 0 0 0 1.869137,-0.07648 l 5.157308,-5.598624 0.05788,4.610571 a 1.3229166,1.3229166 0 0 0 1.33997,1.30638 1.3229166,1.3229166 0 0 0 1.304313,-1.339453 l -0.0925,-7.410917 10.415901,-11.30732 0.397909,15.989721 -4.584216,4.892208 a 1.3229166,1.3229166 0 0 0 0.06046,1.871204 1.3229166,1.3229166 0 0 0 1.869137,-0.06253 l 2.748152,-2.93057 0.181384,7.294128 a 1.3229166,1.3229166 0 0 0 1.355473,1.28881 1.3229166,1.3229166 0 0 0 1.28881,-1.355472 l -0.179833,-7.247103 2.998266,2.932637 a 1.3229166,1.3229166 0 0 0 1.869137,-0.02119 1.3229166,1.3229166 0 0 0 -0.01912,-1.871204 l -4.94285,-4.832263 -0.394292,-15.885335 11.555884,10.556978 0.704867,7.693587 a 1.3229166,1.3229166 0 0 0 1.437638,1.197343 1.3229166,1.3229166 0 0 0 1.197344,-1.437638 l -0.440284,-4.804358 6.047694,5.525244 a 1.3229166,1.3229166 0 0 0 1.869135,-0.08372 1.3229166,1.3229166 0 0 0 -0.08423,-1.869136 l -6.229594,-5.691126 5.510775,-0.383439 a 1.3229166,1.3229166 0 0 0 1.228866,-1.41025 1.3229166,1.3229166 0 0 0 -1.412317,-1.228348 l -8.024316,0.558105 -12.066448,-11.0231 15.700334,-0.02067 a 1.3230489,1.3230489 0 0 0 0.03669,0.04031 l 5.832202,4.906161 a 1.3229166,1.3229166 0 0 0 1.863453,-0.160197 1.3229166,1.3229166 0 0 0 -0.160198,-1.865003 L 72.77251,50.73123 80.593738,50.72089 a 1.3229166,1.3229166 0 0 0 1.320334,-1.324467 1.3229166,1.3229166 0 0 0 -1.323951,-1.320333 l -7.559229,0.0098 2.979148,-3.079916 a 1.3229166,1.3229166 0 0 0 -0.03152,-1.871203 1.3229166,1.3229166 0 0 0 -1.869136,0.03101 l -4.765601,4.92528 -15.719454,0.02067 9.754443,-10.589535 9.359636,-0.176733 a 1.3229166,1.3229166 0 0 0 1.299145,-1.347721 1.3229166,1.3229166 0 0 0 -1.34772,-1.298629 l -6.829558,0.129191 5.233789,-5.681824 a 1.3229166,1.3229166 0 0 0 -0.07648,-1.869136 1.3229166,1.3229166 0 0 0 -0.950847,-0.34985 1.3229166,1.3229166 0 0 0 -0.91829,0.425814 l -5.036901,5.467883 -0.337965,-5.770707 a 1.3229166,1.3229166 0 0 0 -1.398364,-1.243851 1.3229166,1.3229166 0 0 0 -1.244368,1.398364 l 0.487308,8.323523 -10.100675,10.965222 -0.40256,-16.200562 4.859652,-5.568652 a 1.322915,1.322915 0 0 0 -0.126607,-1.867069 1.322915,1.322915 0 0 0 -0.959115,-0.322461 1.322915,1.322915 0 0 0 -0.907955,0.449068 l -2.963126,3.396692 -0.162264,-6.529318 a 1.3229166,1.3229166 0 0 0 -1.355473,-1.28881 z" /></svg>
