<?xml version="1.0" encoding="UTF-8" standalone="no"?>
<svg
   height="100mm"
   viewBox="0 0 100 100"
   width="100mm"
   version="1.1"
   id="svg1"
   sodipodi:docname="item.sprinkles.svg"
   xml:space="preserve"
   inkscape:version="1.4 (e7c3feb1, 2024-10-09)"
   xmlns:inkscape="http://www.inkscape.org/namespaces/inkscape"
   xmlns:sodipodi="http://sodipodi.sourceforge.net/DTD/sodipodi-0.dtd"
   xmlns:xlink="http://www.w3.org/1999/xlink"
   xmlns="http://www.w3.org/2000/svg"
   xmlns:svg="http://www.w3.org/2000/svg"><defs
     id="defs1"><linearGradient
       id="linearGradient34"
       inkscape:collect="always"><stop
         style="stop-color:#faf7ec;stop-opacity:1;"
         offset="0"
         id="stop34" /><stop
         style="stop-color:#e9dcc9;stop-opacity:1;"
         offset="1"
         id="stop35" /></linearGradient><linearGradient
       id="linearGradient31"
       inkscape:collect="always"><stop
         style="stop-color:#9d5a16;stop-opacity:1;"
         offset="0"
         id="stop31" /><stop
         style="stop-color:#9c5916;stop-opacity:1;"
         offset="1"
         id="stop32" /></linearGradient><linearGradient
       inkscape:collect="always"
       xlink:href="#linearGradient31"
       id="linearGradient32"
       x1="48.267078"
       y1="17.362247"
       x2="48.267078"
       y2="81.950035"
       gradientUnits="userSpaceOnUse"
       gradientTransform="matrix(1.5482803,0,0,1.5482803,-24.730971,-26.88163)" /><linearGradient
       inkscape:collect="always"
       xlink:href="#linearGradient34"
       id="linearGradient35"
       x1="92.198936"
       y1="20.093531"
       x2="92.198936"
       y2="80.10881"
       gradientUnits="userSpaceOnUse"
       gradientTransform="matrix(1.5482803,0,0,1.5482803,-91.081314,-28.590885)" /></defs><sodipodi:namedview
     id="namedview1"
     pagecolor="#ffffff"
     bordercolor="#666666"
     borderopacity="1.0"
     inkscape:showpageshadow="2"
     inkscape:pageopacity="0.0"
     inkscape:pagecheckerboard="0"
     inkscape:deskcolor="#d1d1d1"
     inkscape:document-units="mm"
     showgrid="false"
     inkscape:zoom="1.4578542"
     inkscape:cx="194.4639"
     inkscape:cy="199.95141"
     inkscape:window-width="1424"
     inkscape:window-height="770"
     inkscape:window-x="7"
     inkscape:window-y="25"
     inkscape:window-maximized="0"
     inkscape:current-layer="svg1" /><path
     id="path15"
     style="fill:url(#linearGradient32);fill-opacity:0.992674;stroke-width:4.70338;stroke-linecap:round;stroke-linejoin:round;stroke-miterlimit:3.8637"
     d="M 50.000398,-6.5321299e-7 A 50.000056,50.000056 0 0 0 -3.1301566e-6,50.000396 50.000056,50.000056 0 0 0 50.000398,100 50.000056,50.000056 0 0 0 100,50.000396 50.000056,50.000056 0 0 0 50.000398,-6.5321299e-7 Z M 50.60687,39.587947 A 12.033943,12.033943 0 0 1 62.640315,51.622188 12.033943,12.033943 0 0 1 50.60687,63.655639 12.033943,12.033943 0 0 1 38.572626,51.622188 12.033943,12.033943 0 0 1 50.60687,39.587947 Z" /><path
     id="path32"
     style="font-variation-settings:normal;vector-effect:none;fill:url(#linearGradient35);fill-opacity:1;stroke:none;stroke-width:0.409649px;stroke-linecap:butt;stroke-linejoin:miter;stroke-miterlimit:4;stroke-dasharray:none;stroke-dashoffset:0;stroke-opacity:1;stop-color:#000000"
     d="m 45.383043,4.3805178 c -4.759237,0.00619 -13.775167,9.4670992 -18.974277,13.0103702 -5.19911,3.543254 -15.786978,3.475657 -17.1820621,8.471415 -1.3950841,4.995759 -1.5623046,6.123232 -1.9730355,9.057084 -0.4107309,2.933867 -2.4086643,5.039606 -1.9874392,8.132172 0.4212252,3.092581 4.2680282,4.315351 5.0598078,9.035485 0.79178,4.720149 -5.753764,12.825877 -3.2531907,18.070181 2.5005733,5.244288 9.9043367,3.935093 14.4569337,7.951348 4.552598,4.01627 3.954547,14.191599 12.287876,15.359451 8.333329,1.167837 14.733152,-7.282088 20.780894,-6.50479 6.047743,0.777299 16.274064,7.065856 20.781697,3.071572 4.507616,-3.994285 4.236884,-11.719662 7.663321,-15.607471 3.426422,-3.887825 8.419936,-4.890336 10.768485,-7.703329 2.348555,-2.812993 2.575022,-5.481733 3.252395,-8.493014 0.677357,-3.011297 1.559737,-6.196435 0.723279,-9.397133 -0.836443,-3.200698 -4.682944,-5.289575 -5.783084,-8.673838 -1.100146,-3.384277 2.988051,-6.485018 -1.26496,-13.010369 -4.253002,-6.525336 -6.188632,-3.163261 -9.03468,-5.963914 C 78.858954,18.385085 78.226264,12.271019 74.29611,10.343642 69.745188,8.1118269 63.214608,14.307936 59.116692,11.246955 55.018777,8.1859586 50.142281,4.3737209 45.383043,4.3805178 Z M 57.463694,35.973921 c 0.673626,-0.02772 1.32144,0.07974 1.932231,0.409644 2.443163,1.31963 1.937171,5.255374 3.562027,7.377679 1.624851,2.122321 2.452391,4.05682 2.289884,6.191155 -0.162523,2.134335 -1.729256,5.086194 -2.544314,5.766291 -0.815058,0.680098 -1.183414,3.27788 -2.968355,5.003794 -1.784941,1.725915 -3.533518,2.027613 -6.954436,3.053163 -3.420917,1.025565 -10.382236,-2.321043 -10.09161,-2.544305 0.290626,-0.223246 -5.935898,-1.639303 -7.208065,-4.155693 -1.272168,-2.516389 1.555088,-5.033381 1.441772,-7.632108 -0.113319,-2.598742 -3.151235,-5.604016 -2.120254,-7.548114 1.030982,-1.944098 3.9011,-0.82754 5.08781,-1.696203 1.186711,-0.868663 0.169348,-1.859423 2.035446,-2.798733 1.866097,-0.939311 6.156326,0.261907 9.074687,0.08484 2.188772,-0.132842 4.442298,-1.428397 6.463177,-1.511385 z" /><path
     style="fill:#c44441;stroke-linecap:round;stroke-linejoin:round"
     d="m 44.099609,19.355469 -7.189453,1.052734 a 2.5,2.5 0 0 0 -2.111328,2.835938 2.5,2.5 0 0 0 2.835938,2.111328 l 7.189453,-1.052735 a 2.5,2.5 0 0 0 2.111328,-2.835937 2.5,2.5 0 0 0 -2.835938,-2.111328 z"
     id="path36" /><path
     style="fill:#c87bd4;stroke-linecap:round;stroke-linejoin:round"
     d="m 55.667969,14.578125 a 2.5,2.5 0 0 0 -1.5,1.185547 2.5,2.5 0 0 0 0.964843,3.402344 l 6.345704,3.539062 a 2.5,2.5 0 0 0 3.40039,-0.966797 2.5,2.5 0 0 0 -0.964844,-3.40039 l -6.345703,-3.539063 a 2.5,2.5 0 0 0 -1.90039,-0.220703 z"
     id="path37" /><path
     style="fill:#f3d638;stroke-linecap:round;stroke-linejoin:round"
     d="m 26.439453,20.542969 a 2.5,2.5 0 0 0 -2.726562,2.25 l -0.691407,7.234375 a 2.5,2.5 0 0 0 2.25,2.726562 2.5,2.5 0 0 0 2.726563,-2.251953 l 0.691406,-7.232422 a 2.5,2.5 0 0 0 -2.25,-2.726562 z"
     id="path38" /><path
     style="fill:#70bd72;stroke-linecap:round;stroke-linejoin:round"
     d="m 49.644531,9.2832031 -7.154297,1.2714849 a 2.5,2.5 0 0 0 -2.023437,2.898437 2.5,2.5 0 0 0 2.898437,2.023438 l 7.152344,-1.269532 a 2.5,2.5 0 0 0 2.025391,-2.898437 2.5,2.5 0 0 0 -2.898438,-2.0253909 z"
     id="path39" /><path
     style="fill:#fba154;stroke-linecap:round;stroke-linejoin:round"
     d="m 64.712891,28.501953 a 2.5,2.5 0 0 0 -3.46875,0.677734 2.5,2.5 0 0 0 0.677734,3.470704 l 6.029297,4.054687 a 2.5,2.5 0 0 0 3.46875,-0.677734 2.5,2.5 0 0 0 -0.677735,-3.470703 z"
     id="path40" /><path
     style="fill:#23c2f2;stroke-linecap:round;stroke-linejoin:round"
     d="m 32.761719,31.953125 a 2.5,2.5 0 0 0 -1.650391,0.96875 l -4.380859,5.796875 a 2.5,2.5 0 0 0 0.486328,3.501953 2.5,2.5 0 0 0 3.501953,-0.488281 L 35.101562,35.9375 a 2.5,2.5 0 0 0 -0.488281,-3.501953 2.5,2.5 0 0 0 -1.851562,-0.482422 z"
     id="path41" /><path
     style="fill:#23c2f2;stroke-linecap:round;stroke-linejoin:round"
     d="m 15.439453,63.5 a 2.5,2.5 0 0 0 -3.535156,0.01758 2.5,2.5 0 0 0 0.01758,3.537109 l 5.164062,5.111329 a 2.5,2.5 0 0 0 3.535157,-0.01758 2.5,2.5 0 0 0 -0.01758,-3.535156 z"
     id="path43" /><path
     style="fill:#23c2f2;stroke-linecap:round;stroke-linejoin:round"
     d="m 44.783203,79.046875 a 2.5,2.5 0 0 0 -1.705078,0.871094 l -4.708984,5.53125 a 2.5,2.5 0 0 0 0.28125,3.523437 2.5,2.5 0 0 0 3.52539,-0.28125 l 4.708985,-5.533203 a 2.5,2.5 0 0 0 -0.28125,-3.523437 2.5,2.5 0 0 0 -1.820313,-0.587891 z"
     id="path45" /><path
     style="fill:#23c2f2;stroke-linecap:round;stroke-linejoin:round"
     d="m 59.669922,66.667969 -7.195313,0.998047 a 2.5,2.5 0 0 0 -2.134765,2.820312 2.5,2.5 0 0 0 2.820312,2.132813 l 7.197266,-0.998047 a 2.5,2.5 0 0 0 2.132812,-2.820313 2.5,2.5 0 0 0 -2.820312,-2.132812 z"
     id="path46" /><path
     style="fill:#23c2f2;stroke-linecap:round;stroke-linejoin:round"
     d="m 79.041016,66.947266 a 2.5,2.5 0 0 0 -3.222657,1.453125 l -2.570312,6.796875 a 2.5,2.5 0 0 0 1.455078,3.222656 2.5,2.5 0 0 0 3.222656,-1.455078 l 2.56836,-6.794922 a 2.5,2.5 0 0 0 -1.453125,-3.222656 z"
     id="path48" /><path
     style="fill:#23c2f2;stroke-linecap:round;stroke-linejoin:round"
     d="m 80.792969,51.816406 a 2.5,2.5 0 0 0 -1.910157,0.113281 l -6.535156,3.177735 a 2.5,2.5 0 0 0 -1.15625,3.339844 2.5,2.5 0 0 0 3.341797,1.15625 l 6.535156,-3.175782 a 2.5,2.5 0 0 0 1.15625,-3.341797 2.5,2.5 0 0 0 -1.43164,-1.269531 z"
     id="path49" /><path
     style="fill:#23c2f2;stroke-linecap:round;stroke-linejoin:round"
     d="m 80.664062,27.484375 a 2.5,2.5 0 0 0 -3.154296,1.595703 2.5,2.5 0 0 0 1.595703,3.15625 l 6.902343,2.265625 A 2.5,2.5 0 0 0 89.164062,32.90625 2.5,2.5 0 0 0 87.568359,29.75 Z"
     id="path68" /><path
     style="fill:#c44441;stroke-linecap:round;stroke-linejoin:round"
     d="m 12.089844,31.791016 a 2.5,2.5 0 0 0 -1.546875,1.126953 2.5,2.5 0 0 0 0.830078,3.4375 l 6.199219,3.787109 a 2.5,2.5 0 0 0 3.4375,-0.828125 2.5,2.5 0 0 0 -0.830079,-3.4375 l -6.201171,-3.789062 a 2.5,2.5 0 0 0 -1.888672,-0.296875 z"
     id="path70" /><path
     style="fill:#c44441;stroke-linecap:round;stroke-linejoin:round"
     d="m 32.160156,57.519531 a 2.5,2.5 0 0 0 -1.697265,3.101563 l 2.041015,6.972656 a 2.5,2.5 0 0 0 3.101563,1.697266 2.5,2.5 0 0 0 1.697265,-3.101563 l -2.041015,-6.972656 a 2.5,2.5 0 0 0 -3.101563,-1.697266 z"
     id="path72" /><path
     style="fill:#c44441;stroke-linecap:round;stroke-linejoin:round"
     d="m 65.705078,81.164062 a 2.5,2.5 0 0 0 -2.833984,2.115235 2.5,2.5 0 0 0 2.115234,2.832031 l 7.189453,1.044922 a 2.5,2.5 0 0 0 2.833985,-2.115234 2.5,2.5 0 0 0 -2.115235,-2.832032 z"
     id="path73" /><path
     style="fill:#c44441;stroke-linecap:round;stroke-linejoin:round"
     d="m 86.242187,41.183594 a 2.5,2.5 0 0 0 -1.787109,0.685547 2.5,2.5 0 0 0 -0.0918,3.535156 l 5,5.271484 a 2.5,2.5 0 0 0 3.533203,0.0918 2.5,2.5 0 0 0 0.09375,-3.533203 l -5,-5.271484 a 2.5,2.5 0 0 0 -1.748047,-0.779297 z"
     id="path76" /><path
     style="fill:#c44441;stroke-linecap:round;stroke-linejoin:round"
     d="m 70.060547,14.222656 a 2.5,2.5 0 0 0 -1.345703,3.269531 l 2.796875,6.707032 a 2.5,2.5 0 0 0 3.269531,1.345703 2.5,2.5 0 0 0 1.345703,-3.269531 l -2.796875,-6.707032 a 2.5,2.5 0 0 0 -3.269531,-1.345703 z"
     id="path77" /><path
     style="fill:#70bd72;stroke-linecap:round;stroke-linejoin:round"
     d="M 31.748047,46.648437 A 2.5,2.5 0 0 0 29.875,47.037109 l -6.009766,4.083985 a 2.5,2.5 0 0 0 -0.662109,3.472656 2.5,2.5 0 0 0 3.472656,0.662109 l 6.009766,-4.083984 a 2.5,2.5 0 0 0 0.662109,-3.472656 2.5,2.5 0 0 0 -1.599609,-1.050782 z"
     id="path78" /><path
     style="fill:#70bd72;stroke-linecap:round;stroke-linejoin:round"
     d="m 53.734375,74.945312 a 2.5,2.5 0 0 0 -2.693359,2.289063 2.5,2.5 0 0 0 2.289062,2.695312 l 7.240234,0.589844 a 2.5,2.5 0 0 0 2.695313,-2.289062 2.5,2.5 0 0 0 -2.289063,-2.695313 z"
     id="path79" /><path
     style="fill:#70bd72;stroke-linecap:round;stroke-linejoin:round"
     d="m 65.332031,57.960937 a 2.5,2.5 0 0 0 -1.40625,3.244141 l 2.669922,6.757813 a 2.5,2.5 0 0 0 3.244141,1.40625 2.5,2.5 0 0 0 1.40625,-3.244141 l -2.671875,-6.757813 a 2.5,2.5 0 0 0 -3.242188,-1.40625 z"
     id="path80" /><path
     style="fill:#f3d638;stroke-linecap:round;stroke-linejoin:round"
     d="m 53.832031,23.402344 a 2.5,2.5 0 0 0 -3.246094,1.402343 l -2.679687,6.751954 a 2.5,2.5 0 0 0 1.402344,3.246093 2.5,2.5 0 0 0 3.246093,-1.40039 l 2.679688,-6.753907 a 2.5,2.5 0 0 0 -1.402344,-3.246093 z"
     id="path81" /><path
     style="fill:#f3d638;stroke-linecap:round;stroke-linejoin:round"
     d="m 22.242187,61.451172 a 2.5,2.5 0 0 0 -1.65625,0.958984 2.5,2.5 0 0 0 0.466797,3.503906 l 5.771485,4.416016 a 2.5,2.5 0 0 0 3.503906,-0.466797 2.5,2.5 0 0 0 -0.466797,-3.503906 l -5.769531,-4.416016 a 2.5,2.5 0 0 0 -1.84961,-0.492187 z"
     id="path82" /><path
     style="fill:#f3d638;stroke-linecap:round;stroke-linejoin:round"
     d="m 43.162109,65.21875 a 2.5,2.5 0 0 0 -2.789062,2.171875 l -0.894531,7.210937 a 2.5,2.5 0 0 0 2.173828,2.789063 2.5,2.5 0 0 0 2.789062,-2.173828 l 0.894531,-7.210938 A 2.5,2.5 0 0 0 43.162109,65.21875 Z"
     id="path84" /><path
     style="fill:#f3d638;stroke-linecap:round;stroke-linejoin:round"
     d="m 86.582031,54.771484 a 2.5,2.5 0 0 0 -1.646484,3.128907 l 2.15625,6.9375 a 2.5,2.5 0 0 0 3.128906,1.646484 2.5,2.5 0 0 0 1.646484,-3.128906 l -2.15625,-6.939453 a 2.5,2.5 0 0 0 -3.128906,-1.644532 z"
     id="path85" /><path
     style="fill:#c87bd4;stroke-linecap:round;stroke-linejoin:round"
     d="m 19.263672,46.111328 a 2.5,2.5 0 0 0 -1.626953,1.005859 l -4.25,5.892579 A 2.5,2.5 0 0 0 13.951172,56.5 2.5,2.5 0 0 0 17.441406,55.935547 l 4.25,-5.892578 a 2.5,2.5 0 0 0 -0.564453,-3.490235 2.5,2.5 0 0 0 -1.863281,-0.441406 z"
     id="path87" /><path
     style="fill:#c87bd4;stroke-linecap:round;stroke-linejoin:round"
     d="m 78.429687,37.25 a 2.5,2.5 0 0 0 -3.167968,1.568359 l -2.326172,6.882813 a 2.5,2.5 0 0 0 1.568359,3.169922 2.5,2.5 0 0 0 3.167969,-1.56836 l 2.326172,-6.884765 A 2.5,2.5 0 0 0 78.429687,37.25 Z"
     id="path88" /><path
     style="fill:#fba154;stroke-linecap:round;stroke-linejoin:round"
     d="m 30.056641,74.314453 a 2.5,2.5 0 0 0 -2.392579,2.601563 l 0.306641,7.259765 a 2.5,2.5 0 0 0 2.603516,2.392578 2.5,2.5 0 0 0 2.392578,-2.603515 l -0.306641,-7.259766 a 2.5,2.5 0 0 0 -2.603515,-2.390625 z"
     id="path89" /></svg>
