<?xml version="1.0" encoding="UTF-8" standalone="no"?>
<svg
   height="100mm"
   viewBox="0 0 100 100"
   width="100mm"
   version="1.1"
   id="svg1"
   sodipodi:docname="item.star.stripe.v.svg"
   xml:space="preserve"
   inkscape:version="1.4 (e7c3feb1, 2024-10-09)"
   xmlns:inkscape="http://www.inkscape.org/namespaces/inkscape"
   xmlns:sodipodi="http://sodipodi.sourceforge.net/DTD/sodipodi-0.dtd"
   xmlns:xlink="http://www.w3.org/1999/xlink"
   xmlns="http://www.w3.org/2000/svg"
   xmlns:svg="http://www.w3.org/2000/svg"><defs
     id="defs1"><linearGradient
       id="linearGradient13"
       inkscape:collect="always"><stop
         style="stop-color:#f2e5d9;stop-opacity:1;"
         offset="0"
         id="stop13" /><stop
         style="stop-color:#fbf7f4;stop-opacity:1;"
         offset="1"
         id="stop14" /></linearGradient><linearGradient
       id="linearGradient11"
       inkscape:collect="always"><stop
         style="stop-color:#9d5a16;stop-opacity:1;"
         offset="0"
         id="stop11" /><stop
         style="stop-color:#9c5916;stop-opacity:1;"
         offset="1"
         id="stop12" /></linearGradient><linearGradient
       inkscape:collect="always"
       xlink:href="#linearGradient11"
       id="linearGradient12"
       x1="29.731493"
       y1="63.326885"
       x2="29.731493"
       y2="-33.999451"
       gradientUnits="userSpaceOnUse"
       gradientTransform="matrix(0.78558186,-0.01416861,0.01416861,0.78558186,24.698227,38.478412)" /><linearGradient
       inkscape:collect="always"
       xlink:href="#linearGradient13"
       id="linearGradient14"
       x1="-48.953373"
       y1="82.405128"
       x2="-48.953373"
       y2="18.029022"
       gradientUnits="userSpaceOnUse"
       gradientTransform="matrix(1.1111111,0,0,1.1111111,102.80642,-6.4562825)" /></defs><sodipodi:namedview
     id="namedview1"
     pagecolor="#ffffff"
     bordercolor="#666666"
     borderopacity="1.0"
     inkscape:showpageshadow="2"
     inkscape:pageopacity="0.0"
     inkscape:pagecheckerboard="0"
     inkscape:deskcolor="#d1d1d1"
     inkscape:document-units="mm"
     showgrid="false"
     inkscape:zoom="1.21546"
     inkscape:cx="259.98387"
     inkscape:cy="208.56301"
     inkscape:window-width="1424"
     inkscape:window-height="770"
     inkscape:window-x="7"
     inkscape:window-y="25"
     inkscape:window-maximized="0"
     inkscape:current-layer="g1" /><g
     id="g1"
     transform="matrix(1.3072828,0,0,1.3072828,-12.902425,-14.566378)"><path
       id="path1"
       style="fill:url(#linearGradient12);fill-opacity:1;stroke-width:0.415771;stroke-linecap:round;stroke-linejoin:round;stroke-miterlimit:3.8637"
       inkscape:transform-center-x="-0.10402053"
       inkscape:transform-center-y="-3.3450645"
       d="M 71.287855,85.459611 C 66.624156,88.861421 50.763608,76.066481 48.22341,76.026004 45.683212,75.985527 27.523571,88.905174 24.17886,85.019923 20.834148,81.134672 26.415641,63.214536 25.458406,60.803664 24.50117,58.392793 8.029396,45.86475 10.039548,40.080734 12.0497,34.296718 31.347432,35.153714 33.863473,33.316787 36.379515,31.479859 42.321129,12.963069 47.90973,12.746476 c 5.5886,-0.216593 12.094699,18.844178 14.260744,20.695899 2.166045,1.851721 22.566019,-0.836385 24.093031,7.34979 1.527011,8.186174 -14.80297,16.66535 -15.899581,20.118105 -1.096611,3.452753 5.58763,21.147531 0.923931,24.549341 z"
       sodipodi:nodetypes="zzzzzzzzzzz" /><path
       style="fill:#4d99e5;fill-opacity:1;stroke-width:1.01195905;stroke-linecap:round;stroke-linejoin:round;stroke-dasharray:none"
       d="m 63.114752,38.676448 c -2.95e-4,-1.24156 -1.006704,-0.89869 -2.248264,-0.898985 -1.241559,2.95e-4 -2.247968,-3.490892 -2.248264,-2.249332 v 41.811483 c -9.03e-4,1.242407 1.005857,1.350613 2.248264,1.350946 1.242407,-2.96e-4 2.249167,1.69053 2.248264,0.448123 z"
       id="path3"
       sodipodi:nodetypes="ccccccc" /><path
       style="fill:#4de54d;fill-opacity:1;stroke-width:1.01195905;stroke-linecap:round;stroke-linejoin:round;stroke-dasharray:none"
       d="m 54.614318,26.434572 c -2.96e-4,-1.24156 -1.006705,-4.946527 -2.248265,-4.946823 -1.241559,2.97e-4 -2.247967,-3.041131 -2.248263,-1.799572 v 52.155954 c -9.03e-4,1.242407 1.005857,1.350619 2.248263,1.350916 1.242408,-2.96e-4 2.249168,3.039807 2.248265,1.797401 z"
       id="path4"
       sodipodi:nodetypes="ccccccc" /><path
       style="fill:#e54d66;fill-opacity:1;stroke-width:1.01195905;stroke-linecap:round;stroke-linejoin:round;stroke-dasharray:none"
       d="m 46.116053,18.779807 c -2.95e-4,-1.241559 -1.006704,4.048666 -2.248263,4.048369 -1.242407,-9.03e-4 -2.250139,2.355131 -2.250434,3.597543 v 48.108118 c -9.04e-4,1.243254 1.00718,-0.89698 2.250434,-0.897884 1.242407,-2.96e-4 2.249167,-0.108511 2.248263,-1.350914 z"
       id="path5"
       sodipodi:nodetypes="ccccccc" /><path
       style="fill:#e5e54d;fill-opacity:1;stroke-width:1.01195905;stroke-linecap:round;stroke-linejoin:round;stroke-dasharray:none"
       d="m 37.61562,35.004653 c -2.95e-4,-1.24156 -1.006704,1.350107 -2.248264,1.349812 -1.241559,2.96e-4 -2.247968,-0.342574 -2.248264,0.898985 v 42.261243 c -9.03e-4,1.242407 1.005857,-0.448419 2.248264,-0.448123 1.242407,-2.96e-4 2.249167,-0.558268 2.248264,-1.800675 z"
       id="path6"
       sodipodi:nodetypes="ccccccc" /><path
       style="fill:url(#linearGradient14);stroke-width:1.01195905;stroke-linecap:round;stroke-linejoin:round;stroke-miterlimit:3.8637;stroke-dasharray:none"
       d="m 48.00003,15.883777 c -0.924786,-0.02132 -1.569463,0.49847 -2.139758,1.080729 -0.570293,0.582259 -1.102984,1.329149 -1.649305,2.209201 -1.092641,1.760107 -2.218275,4.049648 -3.313801,6.382379 -1.095527,2.332731 -2.15596,4.706978 -3.072917,6.575521 -0.458479,0.934271 -0.882479,1.74309 -1.24132,2.33941 -0.358841,0.596319 -0.72156,0.987026 -0.716146,0.983072 0.005,-0.0037 -0.499642,0.234291 -1.202256,0.410157 -0.702616,0.175865 -1.636144,0.355142 -2.703993,0.531683 -2.135702,0.353085 -4.818577,0.70136 -7.469618,1.07856 -2.651042,0.377199 -5.26636,0.779835 -7.33073,1.26519 -1.032185,0.242679 -1.924186,0.501465 -2.65625,0.820313 -0.732063,0.318849 -1.430723,0.628314 -1.746961,1.545139 -0.322576,0.9352 0.0621,1.615658 0.462239,2.315538 0.400134,0.699881 0.968502,1.447462 1.662326,2.267796 1.387649,1.640666 3.279086,3.548018 5.219185,5.440537 1.940097,1.892519 3.927289,3.766026 5.46875,5.288629 0.77073,0.761301 1.429386,1.435809 1.905381,1.966146 0.475995,0.530336 0.774095,1.021158 0.740018,0.93533 -0.05778,-0.145507 0.04386,0.347402 -0.0043,0.989583 -0.0482,0.64218 -0.163392,1.50289 -0.323351,2.493489 -0.319917,1.981199 -0.813648,4.489949 -1.276041,7.02474 -0.462394,2.534792 -0.895722,5.095381 -1.09158,7.243923 -0.09793,1.074272 -0.137914,2.043897 -0.08247,2.888456 0.05545,0.844559 0.154153,1.574914 0.635851,2.243923 0.299504,0.415967 0.767564,0.670747 1.197917,0.770399 0.430352,0.09965 0.844959,0.08491 1.267361,0.02604 0.844802,-0.117729 1.751757,-0.432032 2.771267,-0.865885 2.039021,-0.867706 4.489661,-2.238804 6.946614,-3.687066 2.456955,-1.448263 4.912861,-2.973022 6.877171,-4.121094 0.982155,-0.574036 1.84409,-1.054947 2.497829,-1.375868 0.65374,-0.320921 1.244741,-0.417046 0.996095,-0.421007 -0.195452,-0.0031 0.341045,0.101523 0.94618,0.407986 0.605135,0.306465 1.398647,0.762152 2.300347,1.308594 1.8034,1.092884 4.049127,2.545673 6.308594,3.936631 2.259466,1.390959 4.526883,2.720033 6.447483,3.59592 0.960299,0.437945 1.828108,0.76843 2.636718,0.92448 0.808611,0.156049 1.701985,0.196244 2.419705,-0.46007 0.645992,-0.590722 0.804492,-1.349676 0.885417,-2.144096 0.08092,-0.79442 0.04196,-1.692638 -0.06077,-2.693142 -0.205431,-2.00101 -0.682927,-4.406415 -1.197917,-6.831598 -0.514988,-2.425183 -1.068575,-4.865657 -1.425781,-6.861979 -0.178602,-0.998161 -0.306957,-1.885988 -0.360243,-2.582466 -0.05329,-0.696477 0.0018,-1.224528 0.03472,-1.328124 0.01763,-0.05552 0.302327,-0.551703 0.805122,-1.119792 0.502796,-0.568089 1.204805,-1.262538 2.02691,-2.02691 1.64421,-1.528743 3.768992,-3.344619 5.844184,-5.182291 2.075192,-1.837674 4.100797,-3.69064 5.590277,-5.364583 0.74474,-0.836973 1.358509,-1.624418 1.786025,-2.398004 0.427515,-0.773586 0.73949,-1.587645 0.486111,-2.49566 -0.25596,-0.917264 -0.989571,-1.446764 -1.768663,-1.822916 -0.779091,-0.376153 -1.707891,-0.636183 -2.769097,-0.852865 -2.122412,-0.433365 -4.77151,-0.668485 -7.439237,-0.850694 -2.667725,-0.182209 -5.34946,-0.308029 -7.454426,-0.488281 -1.052483,-0.09012 -1.962901,-0.195346 -2.625868,-0.319011 -0.662968,-0.123665 -1.105103,-0.374015 -0.972222,-0.260417 0.01787,0.01528 -0.35434,-0.431551 -0.724827,-1.067708 C 59.975467,34.915591 59.527585,34.0596 59.030849,33.073449 58.037375,31.101148 56.848853,28.600427 55.61722,26.137686 54.385584,23.674942 53.115381,21.252472 51.91496,19.390722 51.31475,18.459847 50.736826,17.670094 50.144127,17.057823 49.551428,16.44555 48.943912,15.905538 48.00003,15.883777 Z m -0.05208,2.248263 c -0.150138,-0.0034 0.161375,0.0586 0.579427,0.490453 0.418052,0.431856 0.942689,1.127543 1.497395,1.987846 1.109416,1.720608 2.362894,4.096966 3.58073,6.532118 1.217836,2.435153 2.402878,4.931364 3.415798,6.942274 0.506461,1.005456 0.969696,1.889045 1.382379,2.597657 0.412683,0.708612 0.696253,1.212704 1.204427,1.647136 0.623185,0.532752 1.226866,0.613293 2.02257,0.761718 0.795702,0.148425 1.755947,0.25613 2.845052,0.349393 2.178208,0.186524 4.861235,0.308346 7.495659,0.488281 2.634424,0.179934 5.226805,0.420592 7.141927,0.811632 0.957561,0.19552 1.744236,0.435754 2.239584,0.674913 0.495347,0.239158 0.592893,0.441959 0.581596,0.401476 -0.0087,-0.03123 0.0034,0.274361 -0.288627,0.802951 -0.292122,0.52859 -0.816112,1.22653 -1.497397,1.992188 -1.362575,1.531314 -3.346534,3.358206 -5.401481,5.177951 -2.054946,1.819744 -4.182516,3.635719 -5.883247,5.217013 -0.850364,0.790648 -1.59448,1.520487 -2.180989,2.18316 -0.586509,0.662673 -1.034596,1.20538 -1.265191,1.931423 -0.215325,0.677967 -0.195331,1.355987 -0.132379,2.17882 0.06296,0.822834 0.202494,1.766703 0.388456,2.80599 0.371923,2.078575 0.928188,4.529015 1.438802,6.933594 0.510613,2.404578 0.973486,4.768338 1.161023,6.595052 0.09377,0.913356 0.115723,1.695732 0.06077,2.235243 -0.05495,0.539511 -0.226535,0.76814 -0.164931,0.711806 0.133333,-0.121926 0.02588,0.0081 -0.47743,-0.08898 -0.50331,-0.09713 -1.257953,-0.36452 -2.128907,-0.761718 -1.741906,-0.794397 -3.968933,-2.092183 -6.200086,-3.465712 -2.231154,-1.373529 -4.474069,-2.822191 -6.323785,-3.943142 -0.924857,-0.560476 -1.750343,-1.038851 -2.450086,-1.393229 -0.699744,-0.354379 -1.154467,-0.636595 -1.924914,-0.648872 -0.823643,-0.01312 -1.278573,0.284749 -2.02474,0.651042 -0.746165,0.366293 -1.637201,0.865102 -2.641058,1.451822 -2.007716,1.173441 -4.456997,2.695014 -6.88368,4.125434 -2.426685,1.43042 -4.838219,2.771373 -6.684028,3.556858 -0.922904,0.392742 -1.712986,0.639221 -2.202691,0.707466 -0.191627,0.0267 -0.279805,0.01589 -0.351562,0.0087 -0.03188,-0.07878 -0.156661,-0.381335 -0.195314,-0.970052 -0.04289,-0.653285 -0.01348,-1.532052 0.07812,-2.536892 0.183198,-2.00968 0.604778,-4.530341 1.063367,-7.044271 0.458589,-2.51393 0.954461,-5.022879 1.284723,-7.068142 0.165131,-1.022631 0.288248,-1.927618 0.345052,-2.684461 0.0568,-0.756845 0.129053,-1.296619 -0.145399,-1.987848 -0.250757,-0.63155 -0.62514,-1.015843 -1.156685,-1.608073 -0.531544,-0.592229 -1.214732,-1.287283 -2.000867,-2.063801 -1.572274,-1.553039 -3.555689,-3.424867 -5.477431,-5.29948 -1.921741,-1.874599 -3.783751,-3.756853 -5.073784,-5.282104 -0.645015,-0.762625 -1.147585,-1.441031 -1.427951,-1.931423 -0.280366,-0.490393 -0.185426,-0.76578 -0.288629,-0.46658 -0.09687,0.280826 0.0066,0.007 0.520834,-0.217014 0.514272,-0.22399 1.311935,-0.46652 2.272135,-0.692274 1.9204,-0.451508 4.500791,-0.853744 7.133247,-1.228299 2.632454,-0.374554 5.320306,-0.723654 7.519531,-1.08724 1.099612,-0.181792 2.075608,-0.366749 2.881944,-0.568576 0.806337,-0.201827 1.408935,-0.355251 1.983507,-0.774739 0.574943,-0.419758 0.900118,-0.947397 1.317274,-1.640626 0.417157,-0.693227 0.85946,-1.544805 1.332466,-2.50868 0.946011,-1.927749 2.006794,-4.303156 3.090278,-6.610243 1.083483,-2.307087 2.193391,-4.548091 3.187933,-6.150173 0.497272,-0.801041 0.97162,-1.441206 1.345487,-1.822917 0.373866,-0.381711 0.612811,-0.402795 0.481771,-0.405817 z"
       id="path2" /></g></svg>
